<svg xmlns="http://www.w3.org/2000/svg" width="16" height="16"  viewBox="0 0 16 16"><g transform="matrix(1 0 0 1 0 0)"  ><g style=""   ><g transform="matrix(0.67 0 0 0.67 9.5 8)"  ><path style="stroke: none; stroke-width: 1; stroke-dasharray: none; stroke-linecap: butt; stroke-dashoffset: 0; stroke-linejoin: miter; stroke-miterlimit: 4; fill: rgb(221,60,113); fill-rule: nonzero; opacity: 1;"  transform=" translate(-14.25, -12)" d="M 15 5 C 19.1376 5 21.9433 7.97802 22.9649 11.7383 C 23.0113 11.9096 23.0113 12.0904 22.9649 12.2617 C 21.9429 16.0338 19.1364 19 15 19 C 12.996 19 10.9127 18.2929 9.20411 17.127 C 7.49664 15.9618 6.08217 14.2806 5.53517 12.2617 C 5.48875 12.0904 5.4887 11.9096 5.53517 11.7383 C 6.08224 9.72457 7.49638 8.04308 9.20314 6.87695 C 10.9112 5.71001 12.9951 5 15 5 Z M 15 7 C 13.445 7 11.7489 7.56036 10.332 8.52832 C 9.00057 9.43798 7.98686 10.6556 7.54298 11.998 C 7.98612 13.3463 8.99862 14.5663 10.3311 15.4756 C 11.7475 16.4421 13.4441 17 15 17 C 17.9005 17 20.0529 15.0208 20.959 12 C 20.0524 8.98682 17.899 7 15 7 Z" stroke-linecap="round" /></g><g transform="matrix(0.67 0 0 0.67 12 8.17)"  ><path style="stroke: none; stroke-width: 1; stroke-dasharray: none; stroke-linecap: butt; stroke-dashoffset: 0; stroke-linejoin: miter; stroke-miterlimit: 4; fill: rgb(221,60,113); fill-rule: nonzero; opacity: 1;"  transform=" translate(-18, -12.25)" d="M 17 12.5 L 17 12 C 17 11.4477 17.4477 11 18 11 C 18.5523 11 19 11.4477 19 12 L 19 12.5 C 19 13.0523 18.5523 13.5 18 13.5 C 17.4477 13.5 17 13.0523 17 12.5 Z" stroke-linecap="round" /></g><g transform="matrix(0.67 0 0 0.67 10 8)"  ><path style="stroke: none; stroke-width: 1; stroke-dasharray: none; stroke-linecap: butt; stroke-dashoffset: 0; stroke-linejoin: miter; stroke-miterlimit: 4; fill: rgb(221,60,113); fill-rule: nonzero; opacity: 1;"  transform=" translate(-15, -12)" d="M 12.9945 11.9997 C 12.9946 9.63735 13.7716 7.34007 15.2055 5.46261 L 15.2719 5.38449 C 15.6186 5.01529 16.1955 4.96112 16.6068 5.27511 C 17.0458 5.61032 17.1296 6.23854 16.7943 6.67745 L 16.5824 6.96749 C 15.5508 8.43974 14.9946 10.1962 14.9945 11.9997 L 15.0023 12.3601 C 15.0712 14.0367 15.6194 15.6587 16.5824 17.0329 L 16.7943 17.323 L 16.8529 17.4079 C 17.1179 17.8397 17.0181 18.4102 16.6068 18.7243 C 16.1954 19.0386 15.6187 18.9845 15.2719 18.615 L 15.2055 18.5368 L 14.9438 18.1804 C 13.7613 16.4929 13.0879 14.5009 13.0033 12.4421 L 12.9945 11.9997 Z" stroke-linecap="round" /></g><g transform="matrix(0.67 0 0 0.67 3 8)"  ><path style="stroke: none; stroke-width: 1; stroke-dasharray: none; stroke-linecap: butt; stroke-dashoffset: 0; stroke-linejoin: miter; stroke-miterlimit: 4; fill: rgb(221,60,113); fill-rule: nonzero; opacity: 1;"  transform=" translate(-4.5, -12)" d="M 6.00002 10.6699 C 6 9.50993 5.69298 8.56766 5.14943 7.87984 C 4.72606 7.34411 4.11835 6.91245 3.28517 6.65523 C 3.10317 7.19755 2.99048 7.92773 3.00881 8.72652 C 3.0354 9.88275 3.32466 10.8677 3.73342 11.3662 C 4.01758 11.7129 4.03438 12.2028 3.7842 12.5664 L 3.73049 12.6367 C 3.31864 13.1349 3.02755 14.1186 3.00099 15.2734 C 2.98266 16.0727 3.09714 16.8029 3.28127 17.3447 C 4.11628 17.0876 4.72545 16.6566 5.14943 16.1201 C 5.69298 15.4323 6 14.49 6.00002 13.33 C 6.00002 12.7777 6.44773 12.33 7.00002 12.33 C 7.55229 12.33 8.00002 12.7778 8.00002 13.33 C 8 14.84 7.59766 16.2482 6.71877 17.3603 C 5.88825 18.4112 4.69041 19.1233 3.19533 19.4306 L 2.89259 19.4863 C 2.5066 19.5499 2.1189 19.383 1.90041 19.0585 C 1.23118 18.0647 0.970966 16.5745 1.00197 15.2265 C 1.02698 14.1415 1.24551 12.945 1.76369 11.997 C 1.251 11.05 1.03376 9.8561 1.00881 8.77339 C 0.977834 7.42678 1.23555 5.93832 1.89748 4.94527 L 1.98732 4.83003 C 2.2131 4.57963 2.55345 4.45772 2.89259 4.51363 L 3.19533 4.56929 C 4.69041 4.87659 5.88825 5.58868 6.71877 6.6396 C 7.59766 7.75174 8 9.15992 8.00002 10.6699 C 8.00002 11.2222 7.55229 11.6699 7.00002 11.6699 C 6.44773 11.6699 6.00002 11.2222 6.00002 10.6699 Z" stroke-linecap="round" /></g><g transform="matrix(0.67 0 0 0.67 8 3.42)"  ><path style="stroke: none; stroke-width: 1; stroke-dasharray: none; stroke-linecap: butt; stroke-dashoffset: 0; stroke-linejoin: miter; stroke-miterlimit: 4; fill: rgb(221,60,113); fill-rule: nonzero; opacity: 1;"  transform=" translate(-12, -5.13)" d="M 13.7998 2 L 13.7998 2.00098 C 14.5102 1.99917 15.198 2.24895 15.7412 2.70703 C 16.2173 3.10858 16.5553 3.64652 16.7109 4.24512 L 16.7666 4.50488 L 16.7666 4.50781 L 16.9971 5.9082 L 17.0078 6.00977 C 17.039 6.51561 16.6827 6.97271 16.1719 7.05664 C 15.6271 7.14603 15.1131 6.77716 15.0234 6.23242 L 14.793 4.83203 L 14.793 4.83105 C 14.7531 4.59862 14.6325 4.38745 14.4521 4.23535 C 14.2708 4.08245 14.0409 3.99912 13.8037 4 L 10.0723 4 C 10.7318 4.98352 11.2512 6.06033 11.4424 7.0752 C 11.5444 7.61775 11.188 8.1408 10.6455 8.24316 C 10.1028 8.34541 9.57987 7.98794 9.47752 7.44531 C 9.28052 6.39968 8.48647 5.03999 7.47752 3.90918 L 7.27245 3.68652 C 6.9985 3.39618 6.92392 2.97006 7.08202 2.60352 C 7.24022 2.23724 7.60097 2 7.99999 2 L 13.7998 2 Z" stroke-linecap="round" /></g><g transform="matrix(0.67 0 0 0.67 8.5 12.67)"  ><path style="stroke: none; stroke-width: 1; stroke-dasharray: none; stroke-linecap: butt; stroke-dashoffset: 0; stroke-linejoin: miter; stroke-miterlimit: 4; fill: rgb(221,60,113); fill-rule: nonzero; opacity: 1;"  transform=" translate(-12.76, -19.01)" d="M 10.9834 16.02 C 11.5012 16.0168 11.93 16.4076 11.9844 16.9116 L 11.9902 17.0142 L 11.9844 17.3335 C 11.9476 18.2623 11.7244 19.168 11.3359 20.0005 L 13.8037 20.0005 L 13.8926 19.9966 C 14.0979 19.9791 14.2935 19.898 14.4521 19.7642 C 14.6328 19.6118 14.7534 19.4004 14.793 19.1675 L 15.0234 17.7681 C 15.1129 17.2232 15.627 16.8535 16.1719 16.9429 C 16.7168 17.0324 17.0866 17.5473 16.9971 18.0923 L 16.7666 19.4917 L 16.7666 19.4946 C 16.6492 20.1966 16.2853 20.8346 15.7412 21.2935 C 15.1981 21.7514 14.5102 22.0013 13.7998 21.9995 L 13.7998 22.0005 L 9.49999 22.0005 C 9.107 22.0005 8.75064 21.7698 8.58886 21.4116 C 8.42713 21.0534 8.48998 20.6332 8.74999 20.3384 L 8.89647 20.1646 C 9.56202 19.3364 9.94422 18.3161 9.98632 17.2544 L 9.99022 17.0259 L 9.99413 16.9243 C 10.042 16.4197 10.4657 16.0235 10.9834 16.02 Z" stroke-linecap="round" /></g></g></g></svg>