<svg xmlns="http://www.w3.org/2000/svg" width="16" height="16"  viewBox="0 0 16 16"><g transform="matrix(1 0 0 1 0 0)"  ><g style=""   ><g transform="matrix(0.67 0 0 0.67 4.67 7.2)"  ><path style="stroke: none; stroke-width: 1; stroke-dasharray: none; stroke-linecap: butt; stroke-dashoffset: 0; stroke-linejoin: miter; stroke-miterlimit: 4; fill: rgb(221,60,113); fill-rule: nonzero; opacity: 1;"  transform=" translate(-7, -10.8)" d="M 10 12.2502 C 10 11.4544 9.61936 10.6194 8.6582 9.83521 C 8.01621 9.31147 7.452 8.66416 7.00293 7.94263 C 6.55428 8.66754 5.98813 9.31851 5.33496 9.84106 C 4.37813 10.6065 4 11.4563 4 12.2502 C 4.00011 13.9308 5.36522 15.3 7 15.3 C 8.63478 15.3 9.99989 13.9308 10 12.2502 Z M 12 12.2502 C 11.9999 15.0095 9.76509 17.3 7 17.3 C 4.23491 17.3 2.00011 15.0095 2 12.2502 C 2 10.7443 2.74204 9.35403 4.08496 8.27954 C 5.05212 7.50581 5.7759 6.32193 6.01953 5.10376 L 6.04102 5.01782 C 6.16493 4.5958 6.55317 4.30005 7 4.30005 C 7.47662 4.30005 7.88691 4.63643 7.98047 5.10376 C 8.22281 6.31545 8.95295 7.49494 9.92188 8.2854 C 11.2405 9.36109 12 10.7262 12 12.2502 Z" stroke-linecap="round" /></g><g transform="matrix(0.67 0 0 0.67 10.03 8.35)"  ><path style="stroke: none; stroke-width: 1; stroke-dasharray: none; stroke-linecap: butt; stroke-dashoffset: 0; stroke-linejoin: miter; stroke-miterlimit: 4; fill: rgb(221,60,113); fill-rule: nonzero; opacity: 1;"  transform=" translate(-15.05, -12.52)" d="M 14.0041 2.02003 C 14.4791 2.02198 14.8874 2.35791 14.9806 2.82374 L 15.0763 3.24659 C 15.6057 5.35534 16.9152 7.37085 18.6252 8.73878 C 20.8035 10.4815 21.9988 12.6471 22.0002 15.0161 L 21.9953 15.312 C 21.9466 16.7887 21.4889 18.225 20.6701 19.4595 C 19.7965 20.7764 18.5514 21.805 17.0929 22.4136 C 15.6346 23.0221 14.0281 23.1838 12.4777 22.8784 C 11.0241 22.5921 9.68084 21.9071 8.59683 20.9028 L 8.38394 20.6978 L 8.31461 20.6216 C 7.99421 20.2292 8.01647 19.6501 8.38199 19.2837 C 8.74759 18.9173 9.32675 18.8938 9.71988 19.2134 L 9.79605 19.2817 L 9.95621 19.436 C 10.7685 20.1885 11.7752 20.702 12.8644 20.9165 C 14.0263 21.1454 15.2305 21.0239 16.3234 20.5679 C 17.4162 20.1118 18.3485 19.3408 19.0031 18.354 C 19.6577 17.3671 20.005 16.2082 20.0002 15.0239 L 20.0002 15.02 L 19.9904 14.7144 C 19.8953 13.1871 19.0816 11.6665 17.3752 10.3013 C 15.976 9.18195 14.8039 7.70459 13.9982 6.06495 C 13.819 6.429 13.6233 6.78533 13.4074 7.13038 C 13.1144 7.59852 12.4976 7.74075 12.0295 7.44776 C 11.5614 7.15483 11.4194 6.53794 11.7121 6.06983 C 12.3371 5.07118 12.7801 3.96923 13.0207 2.81593 L 13.0431 2.72999 C 13.17 2.31038 13.5588 2.01822 14.0041 2.02003 Z" stroke-linecap="round" /></g></g></g></svg>