<svg xmlns="http://www.w3.org/2000/svg" width="16" height="16"  viewBox="0 0 16 16"><g transform="matrix(1 0 0 1 0 0)"  ><g style=""   ><g transform="matrix(0.67 0 0 0.67 8 1.33)"  ><path style="stroke: none; stroke-width: 1; stroke-dasharray: none; stroke-linecap: butt; stroke-dashoffset: 0; stroke-linejoin: miter; stroke-miterlimit: 4; fill: rgb(221,60,113); fill-rule: nonzero; opacity: 1;"  transform=" translate(-12, -2)" d="M 16 1 C 16.5523 1 17 1.44772 17 2 C 17 2.55228 16.5523 3 16 3 L 8 3 C 7.44772 3 7 2.55228 7 2 C 7 1.44772 7.44772 1 8 1 L 16 1 Z" stroke-linecap="round" /></g><g transform="matrix(0.67 0 0 0.67 8 8)"  ><path style="stroke: none; stroke-width: 1; stroke-dasharray: none; stroke-linecap: butt; stroke-dashoffset: 0; stroke-linejoin: miter; stroke-miterlimit: 4; fill: rgb(221,60,113); fill-rule: nonzero; opacity: 1;"  transform=" translate(-12, -12)" d="M 6 20 L 6 10.2119 C 5.99984 9.22447 6.29208 8.25909 6.83984 7.4375 L 7.49609 6.45312 L 7.6123 6.26465 C 7.8297 5.87983 7.95951 5.45151 7.99219 5.01074 L 8 4.78906 L 8 2 C 8 1.44772 8.44772 1 9 1 C 9.55228 1 10 1.44772 10 2 L 10 4.78906 L 9.98633 5.1582 C 9.93192 5.89289 9.71585 6.60661 9.35352 7.24805 L 9.16016 7.5625 L 8.50391 8.54688 C 8.1752 9.03989 7.99987 9.61936 8 10.2119 L 8 20 C 8 20.2652 8.10543 20.5195 8.29297 20.707 C 8.48051 20.8946 8.73478 21 9 21 L 15 21 C 15.2652 21 15.5195 20.8946 15.707 20.707 C 15.8946 20.5195 16 20.2652 16 20 L 16 10.2109 C 16 9.69268 15.866 9.18441 15.6123 8.73535 L 15.4961 8.54688 L 14.8398 7.5625 C 14.3606 6.84364 14.077 6.01471 14.0137 5.15723 L 14 4.78809 L 14 2 C 14 1.44772 14.4477 1 15 1 C 15.5523 1 16 1.44772 16 2 L 16 4.78809 L 16.0078 5.00977 C 16.0458 5.52433 16.2163 6.02176 16.5039 6.45312 L 17.1602 7.4375 L 17.3535 7.75195 C 17.7763 8.50037 18 9.34721 18 10.2109 L 18 20 C 18 20.7957 17.6837 21.5585 17.1211 22.1211 C 16.5585 22.6837 15.7957 23 15 23 L 9 23 C 8.20435 23 7.44152 22.6837 6.87891 22.1211 C 6.3163 21.5585 6 20.7956 6 20 Z" stroke-linecap="round" /></g><g transform="matrix(0.67 0 0 0.67 8 10)"  ><path style="stroke: none; stroke-width: 1; stroke-dasharray: none; stroke-linecap: butt; stroke-dashoffset: 0; stroke-linejoin: miter; stroke-miterlimit: 4; fill: rgb(221,60,113); fill-rule: nonzero; opacity: 1;"  transform=" translate(-12, -15)" d="M 9.50001 13.4977 C 10.491 13.4977 11.4726 13.6949 12.3867 14.0778 L 12.6397 14.1764 C 13.2355 14.3919 13.865 14.5026 14.5 14.5026 L 14.7715 14.4957 C 15.4043 14.4643 16.0276 14.3231 16.6133 14.0778 L 16.71 14.0426 C 17.1948 13.8951 17.7218 14.1364 17.9219 14.6139 C 18.1352 15.1232 17.8959 15.709 17.3867 15.9225 L 17.041 16.0573 C 16.3434 16.3096 15.612 16.4569 14.8711 16.4938 L 14.5 16.5026 C 13.6327 16.5026 12.7728 16.3516 11.959 16.0573 L 11.6133 15.9225 C 10.944 15.6422 10.2256 15.4977 9.50001 15.4977 C 8.77436 15.4977 8.05606 15.6422 7.38672 15.9225 C 6.87731 16.1358 6.29049 15.8958 6.07715 15.3864 C 5.86397 14.8771 6.1042 14.2912 6.61329 14.0778 C 7.5274 13.6949 8.50897 13.4977 9.50001 13.4977 Z" stroke-linecap="round" /></g></g></g></svg>