<svg xmlns="http://www.w3.org/2000/svg" width="20" height="20"  viewBox="0 0 20 20"><g transform="matrix(1 0 0 1 0 0)"  ><g style=""   ><g transform="matrix(0.83 0 0 0.83 6.67 17.5)"  ><path style="stroke: none; stroke-width: 1; stroke-dasharray: none; stroke-linecap: butt; stroke-dashoffset: 0; stroke-linejoin: miter; stroke-miterlimit: 4; fill: rgb(23,26,31); fill-rule: nonzero; opacity: 1;"  transform=" translate(-8, -21)" d="M 6 21 C 6 19.8954 6.89543 19 8 19 C 9.10457 19 10 19.8954 10 21 C 10 22.1046 9.10457 23 8 23 C 6.89543 23 6 22.1046 6 21 Z" stroke-linecap="round" /></g><g transform="matrix(0.83 0 0 0.83 15.83 17.5)"  ><path style="stroke: none; stroke-width: 1; stroke-dasharray: none; stroke-linecap: butt; stroke-dashoffset: 0; stroke-linejoin: miter; stroke-miterlimit: 4; fill: rgb(23,26,31); fill-rule: nonzero; opacity: 1;"  transform=" translate(-19, -21)" d="M 17 21 C 17 19.8954 17.8954 19 19 19 C 20.1046 19 21 19.8954 21 21 C 21 22.1046 20.1046 23 19 23 C 17.8954 23 17 22.1046 17 21 Z" stroke-linecap="round" /></g><g transform="matrix(0.83 0 0 0.83 10.06 7.54)"  ><path style="stroke: none; stroke-width: 1; stroke-dasharray: none; stroke-linecap: butt; stroke-dashoffset: 0; stroke-linejoin: miter; stroke-miterlimit: 4; fill: rgb(23,26,31); fill-rule: nonzero; opacity: 1;"  transform=" translate(-12.07, -9.05)" d="M 4.05 1.04999 L 4.13789 1.05389 C 4.57147 1.09189 4.93498 1.4088 5.02754 1.841 L 5.92891 6.04999 L 22.09 6.04999 C 22.3933 6.05 22.6805 6.18745 22.8703 6.42401 C 23.0601 6.66056 23.1323 6.97074 23.0666 7.26678 L 21.4162 14.6965 L 21.4152 14.6955 C 21.2683 15.362 20.8999 15.9589 20.3684 16.3869 C 19.903 16.7616 19.3377 16.9869 18.7463 17.0383 L 18.4914 17.05 L 8.71016 17.05 L 8.71016 17.049 C 8.02024 17.0593 7.34765 16.8325 6.80586 16.4045 C 6.32671 16.0259 5.97624 15.5116 5.79805 14.9318 L 5.73262 14.6799 L 4.14864 7.28729 C 4.14354 7.26636 4.13872 7.24525 4.13496 7.22382 L 3.24141 3.04999 L 2.05 3.04999 C 1.49772 3.04999 1.05 2.60227 1.05 2.04999 C 1.05 1.4977 1.49772 1.04999 2.05 1.04999 L 4.05 1.04999 Z M 7.6877 14.2599 L 7.70918 14.3439 C 7.76854 14.5374 7.88626 14.7089 8.0461 14.8351 C 8.22855 14.9792 8.45529 15.0551 8.6877 15.05 L 18.4885 15.05 C 18.7158 15.0496 18.9363 14.9718 19.1135 14.8293 C 19.2908 14.6866 19.4142 14.4871 19.4631 14.2648 L 19.4641 14.2629 L 20.843 8.04999 L 6.35762 8.04999 L 7.6877 14.2599 Z" stroke-linecap="round" /></g></g></g></svg>