<svg xmlns="http://www.w3.org/2000/svg" width="16" height="16"  viewBox="0 0 16 16"><g transform="matrix(1 0 0 1 0 0)"  ><g style=""   ><g transform="matrix(0.67 0 0 0.67 8 8)"  ><path style="stroke: none; stroke-width: 1; stroke-dasharray: none; stroke-linecap: butt; stroke-dashoffset: 0; stroke-linejoin: miter; stroke-miterlimit: 4; fill: rgb(23,26,31); fill-rule: nonzero; opacity: 1;"  transform=" translate(-12, -12)" d="M 8.29295 5.29298 C 8.65907 4.92686 9.23807 4.90427 9.63084 5.22462 L 9.70702 5.29298 L 15.707 11.293 C 16.0975 11.6835 16.0975 12.3165 15.707 12.707 L 9.70702 18.707 C 9.31649 19.0976 8.68348 19.0976 8.29295 18.707 C 7.90243 18.3165 7.90243 17.6835 8.29295 17.293 L 13.5859 12 L 8.29295 6.70704 L 8.22459 6.63087 C 7.90424 6.2381 7.92684 5.65909 8.29295 5.29298 Z" stroke-linecap="round" /></g></g></g></svg>