<svg xmlns="http://www.w3.org/2000/svg" width="20" height="20"  viewBox="0 0 20 20"><g transform="matrix(1 0 0 1 0 0)"  ><g style=""   ><g transform="matrix(0.83 0 0 0.83 10.41 9.17)"  ><path style="stroke: none; stroke-width: 1; stroke-dasharray: none; stroke-linecap: butt; stroke-dashoffset: 0; stroke-linejoin: miter; stroke-miterlimit: 4; fill: rgb(221,60,113); fill-rule: nonzero; opacity: 1;"  transform=" translate(-12.49, -11)" d="M 20.0003 10 C 20.0003 7.20943 19.4411 5.36987 18.7395 3.7813 C 18.0041 4.4972 17.2149 5.04019 16.1839 5.4854 C 14.9109 6.03502 13.2895 6.42663 11.0081 6.88188 L 9.98952 7.08208 C 9.98251 7.08343 9.97508 7.08478 9.96804 7.08598 C 8.48464 7.33951 7.15076 8.14115 6.23073 9.33208 C 5.31072 10.5231 4.87191 12.0163 5.00124 13.5157 C 5.13069 15.0151 5.81842 16.412 6.92897 17.4278 C 8.0396 18.4436 9.49224 19.0046 10.9973 19 L 11.0003 19 L 11.4378 18.9883 C 15.9511 18.7451 20.0003 14.7759 20.0003 10 Z M 22.0003 10 C 22.0003 16.0695 16.7555 20.9978 11.0022 20.9991 L 11.0032 21 L 11.0012 20.9991 L 11.0003 21 L 11.0003 20.9991 C 8.99446 21.0045 7.05953 20.2571 5.57936 18.9034 C 4.09869 17.5491 3.18075 15.6877 3.00808 13.6885 C 2.83547 11.6892 3.42091 9.69756 4.64772 8.10942 C 5.87018 6.52692 7.6409 5.46012 9.61061 5.11821 L 10.6331 4.91802 C 12.8959 4.46554 14.3232 4.11045 15.3909 3.64946 C 16.5417 3.15255 17.2945 2.5221 18.2219 1.37212 L 18.3069 1.27934 C 18.5185 1.07576 18.8115 0.97394 19.1077 1.00591 C 19.4459 1.04254 19.7427 1.2485 19.8948 1.55278 L 20.2815 2.34282 C 21.1783 4.22895 22.0003 6.46388 22.0003 10 Z" stroke-linecap="round" /></g><g transform="matrix(0.83 0 0 0.83 6.25 13.75)"  ><path style="stroke: none; stroke-width: 1; stroke-dasharray: none; stroke-linecap: butt; stroke-dashoffset: 0; stroke-linejoin: miter; stroke-miterlimit: 4; fill: rgb(221,60,113); fill-rule: nonzero; opacity: 1;"  transform=" translate(-7.5, -16.5)" d="M 1 21 C 1 17.5148 3.19522 14.7508 6.88574 14.0195 L 7.29492 13.9277 C 8.25413 13.6885 9.23187 13.2793 10.0996 12.8135 C 11.0989 12.277 11.8844 11.7015 12.293 11.293 L 12.3691 11.2246 C 12.7619 10.9043 13.3409 10.9269 13.707 11.293 C 14.0731 11.6591 14.0957 12.2381 13.7754 12.6309 L 13.707 12.707 C 13.1157 13.2984 12.1513 13.9827 11.0459 14.5762 C 10.0717 15.0992 8.93519 15.58 7.77344 15.8692 L 7.27441 15.9805 C 4.50494 16.5292 3 18.4852 3 21 C 3 21.5523 2.55228 22 2 22 C 1.44772 22 1 21.5523 1 21 Z" stroke-linecap="round" /></g></g></g></svg>