<svg xmlns="http://www.w3.org/2000/svg" width="16" height="16"  viewBox="0 0 16 16"><g transform="matrix(1 0 0 1 0 0)"  ><g style=""   ><g transform="matrix(0.67 0 0 0.67 6 10)"  ><path style="stroke: none; stroke-width: 1; stroke-dasharray: none; stroke-linecap: butt; stroke-dashoffset: 0; stroke-linejoin: miter; stroke-miterlimit: 4; fill: rgb(221,60,113); fill-rule: nonzero; opacity: 1;"  transform=" translate(-9, -15)" d="M 15.3691 7.22462 C 15.7619 6.90427 16.3409 6.92686 16.707 7.29298 C 17.0731 7.65909 17.0957 8.2381 16.7754 8.63087 L 16.707 8.70704 L 2.70702 22.707 C 2.31649 23.0976 1.68348 23.0976 1.29295 22.707 C 0.90243 22.3165 0.90243 21.6835 1.29295 21.293 L 15.293 7.29298 L 15.3691 7.22462 Z" stroke-linecap="round" /></g><g transform="matrix(0.67 0 0 0.67 3.33 10)"  ><path style="stroke: none; stroke-width: 1; stroke-dasharray: none; stroke-linecap: butt; stroke-dashoffset: 0; stroke-linejoin: miter; stroke-miterlimit: 4; fill: rgb(221,60,113); fill-rule: nonzero; opacity: 1;"  transform=" translate(-5, -15)" d="M 6.53766 14.7539 C 6.48123 14.1834 6.23071 13.6463 5.82281 13.2363 L 5.82281 13.2373 L 4.99957 12.4141 L 4.17731 13.2373 L 4.17633 13.2363 C 3.71049 13.7048 3.44977 14.3393 3.44977 15 L 3.46149 15.2461 C 3.51786 15.8163 3.76897 16.3529 4.17633 16.7627 L 4.17731 16.7627 L 4.99957 17.585 L 5.82281 16.7627 C 6.28863 16.2943 6.55035 15.6607 6.55035 15 L 6.53766 14.7539 Z M 8.54449 15.2227 C 8.48958 16.332 8.02632 17.3851 7.23883 18.1758 L 7.23688 18.1768 L 5.70758 19.707 C 5.52004 19.8946 5.26479 20 4.99957 20 C 4.76778 19.9999 4.54455 19.919 4.36676 19.7734 L 4.29254 19.707 L 2.76324 18.1768 L 2.76129 18.1758 C 1.92126 17.3324 1.44977 16.1904 1.44977 15 C 1.44977 13.8096 1.92126 12.6676 2.76129 11.8242 L 2.76324 11.8233 L 4.29254 10.293 L 4.36871 10.2246 C 4.76149 9.90404 5.34138 9.92678 5.70758 10.293 L 7.23688 11.8233 L 7.23883 11.8242 L 7.39215 11.9863 C 8.13591 12.811 8.55035 13.8842 8.55035 15 L 8.54449 15.2227 Z" stroke-linecap="round" /></g><g transform="matrix(0.67 0 0 0.67 6 7.33)"  ><path style="stroke: none; stroke-width: 1; stroke-dasharray: none; stroke-linecap: butt; stroke-dashoffset: 0; stroke-linejoin: miter; stroke-miterlimit: 4; fill: rgb(221,60,113); fill-rule: nonzero; opacity: 1;"  transform=" translate(-9, -11)" d="M 10.5377 10.7539 C 10.4812 10.1834 10.2307 9.64628 9.82281 9.23634 L 9.82281 9.23732 L 8.99957 8.41407 L 8.17731 9.23732 L 8.17633 9.23634 C 7.71049 9.70476 7.44977 10.3393 7.44977 11 C 7.44977 11.6605 7.7108 12.2943 8.17633 12.7627 L 8.17731 12.7627 L 8.99957 13.585 L 9.82281 12.7627 C 10.2886 12.2943 10.5504 11.6607 10.5504 11 L 10.5377 10.7539 Z M 12.5445 11.2227 C 12.4896 12.332 12.0263 13.3851 11.2388 14.1758 L 11.2369 14.1768 L 9.70758 15.707 C 9.31706 16.0976 8.68307 16.0976 8.29254 15.707 L 6.76324 14.1768 L 6.76129 14.1758 C 5.92126 13.3324 5.44977 12.1904 5.44977 11 C 5.44977 9.80965 5.92126 8.66762 6.76129 7.82423 L 6.76324 7.82325 L 8.29254 6.29298 L 8.36871 6.22462 C 8.76149 5.90404 9.34138 5.92678 9.70758 6.29298 L 11.2369 7.82325 L 11.2388 7.82423 L 11.3922 7.98634 C 12.1359 8.81103 12.5504 9.88422 12.5504 11 L 12.5445 11.2227 Z" stroke-linecap="round" /></g><g transform="matrix(0.67 0 0 0.67 8.67 4.67)"  ><path style="stroke: none; stroke-width: 1; stroke-dasharray: none; stroke-linecap: butt; stroke-dashoffset: 0; stroke-linejoin: miter; stroke-miterlimit: 4; fill: rgb(221,60,113); fill-rule: nonzero; opacity: 1;"  transform=" translate(-13, -7)" d="M 14.5503 7 C 14.5503 6.33911 14.2889 5.70479 13.8228 5.23633 L 13.8228 5.2373 L 12.9995 4.41406 L 12.1772 5.2373 L 12.1763 5.23633 C 11.7104 5.70475 11.4497 6.33932 11.4497 7 C 11.4497 7.66044 11.7107 8.29433 12.1763 8.7627 L 12.1772 8.7627 L 12.9995 9.58496 L 13.8228 8.7627 C 14.2886 8.29428 14.5503 7.66066 14.5503 7 Z M 16.5503 7 C 16.5503 8.19035 16.0788 9.33239 15.2388 10.1758 L 15.2368 10.1768 L 13.7075 11.707 C 13.3413 12.0732 12.7614 12.096 12.3687 11.7754 L 12.2925 11.707 L 10.7632 10.1768 L 10.7612 10.1758 C 9.9212 9.33239 9.44971 8.19037 9.44971 7 C 9.44971 5.80963 9.9212 4.66761 10.7612 3.82422 L 10.7632 3.82324 L 12.2925 2.29297 L 12.3667 2.22656 C 12.5445 2.08098 12.7677 2.00011 12.9995 2 C 13.2647 2 13.52 2.10543 13.7075 2.29297 L 15.2368 3.82324 L 15.2388 3.82422 L 15.3921 3.98633 C 16.1358 4.81102 16.5503 5.88421 16.5503 7 Z" stroke-linecap="round" /></g><g transform="matrix(0.67 0 0 0.67 12.67 3.33)"  ><path style="stroke: none; stroke-width: 1; stroke-dasharray: none; stroke-linecap: butt; stroke-dashoffset: 0; stroke-linejoin: miter; stroke-miterlimit: 4; fill: rgb(221,60,113); fill-rule: nonzero; opacity: 1;"  transform=" translate(-19, -5)" d="M 21 4 L 21 3 L 20 3 C 19.2044 3 18.4415 3.3163 17.8789 3.87891 C 17.3163 4.44152 17 5.20435 17 6 L 17 7 L 18 7 L 18.2969 6.98535 C 18.9835 6.91709 19.6289 6.61329 20.1211 6.12109 C 20.6837 5.55848 21 4.79565 21 4 Z M 23 4 C 23 5.32608 22.4728 6.59747 21.5352 7.53516 C 20.6561 8.41421 19.4838 8.93281 18.248 8.99414 L 18 9 L 16 9 C 15.4477 9 15 8.55228 15 8 L 15 6 C 15 4.67392 15.5272 3.40253 16.4648 2.46484 C 17.4025 1.52716 18.6739 1 20 1 L 22 1 L 22.1025 1.00488 C 22.6067 1.05621 23 1.48232 23 2 L 23 4 Z" stroke-linecap="round" /></g><g transform="matrix(0.67 0 0 0.67 6 12.67)"  ><path style="stroke: none; stroke-width: 1; stroke-dasharray: none; stroke-linecap: butt; stroke-dashoffset: 0; stroke-linejoin: miter; stroke-miterlimit: 4; fill: rgb(221,60,113); fill-rule: nonzero; opacity: 1;"  transform=" translate(-9, -19)" d="M 8.99999 15.4497 C 10.1158 15.4497 11.189 15.8641 12.0137 16.6079 L 12.1758 16.7612 L 12.1767 16.7632 L 13.707 18.2925 C 14.0975 18.683 14.0975 19.317 13.707 19.7075 L 12.1767 21.2368 L 12.1758 21.2388 C 11.3851 22.0263 10.332 22.4895 9.22264 22.5444 L 8.99999 22.5503 C 7.80963 22.5503 6.66759 22.0788 5.8242 21.2388 L 5.82323 21.2368 L 4.29295 19.7075 C 3.90243 19.317 3.90243 18.683 4.29295 18.2925 L 5.82323 16.7632 L 5.8242 16.7612 L 5.98631 16.6079 C 6.81101 15.8641 7.88418 15.4497 8.99999 15.4497 Z M 8.99999 17.4497 C 8.33931 17.4497 7.70473 17.7104 7.23631 18.1763 L 7.23729 18.1772 L 6.41405 18.9995 L 7.23729 19.8228 L 7.23631 19.8228 C 7.70478 20.2889 8.33909 20.5503 8.99999 20.5503 L 9.24608 20.5376 C 9.81641 20.4812 10.3528 20.2304 10.7627 19.8228 L 11.5849 18.9995 L 10.7627 18.1772 L 10.7627 18.1763 C 10.2943 17.7107 9.66043 17.4497 8.99999 17.4497 Z" stroke-linecap="round" /></g><g transform="matrix(0.67 0 0 0.67 8.67 10)"  ><path style="stroke: none; stroke-width: 1; stroke-dasharray: none; stroke-linecap: butt; stroke-dashoffset: 0; stroke-linejoin: miter; stroke-miterlimit: 4; fill: rgb(221,60,113); fill-rule: nonzero; opacity: 1;"  transform=" translate(-13, -15)" d="M 13.2226 11.4556 C 14.2578 11.5068 15.244 11.9138 16.0137 12.6079 L 16.1758 12.7612 L 16.1767 12.7632 L 17.707 14.2925 C 18.0975 14.683 18.0975 15.317 17.707 15.7075 L 16.1767 17.2368 L 16.1758 17.2388 C 15.3324 18.0788 14.1903 18.5503 13 18.5503 C 11.8096 18.5503 10.6676 18.0788 9.8242 17.2388 L 9.82323 17.2368 L 8.29295 15.7075 C 7.90243 15.317 7.90243 14.683 8.29295 14.2925 L 9.82323 12.7632 L 9.8242 12.7612 L 9.98631 12.6079 C 10.811 11.8641 11.8842 11.4497 13 11.4497 L 13.2226 11.4556 Z M 12.7539 13.4614 C 12.1835 13.5178 11.6462 13.7686 11.2363 14.1763 L 11.2373 14.1772 L 10.414 14.9995 L 11.2373 15.8228 L 11.2363 15.8228 C 11.7048 16.2889 12.3391 16.5503 13 16.5503 C 13.6606 16.5503 14.2943 16.2886 14.7627 15.8228 L 15.5849 14.9995 L 14.7627 14.1772 L 14.7627 14.1763 C 14.2943 13.7107 13.6604 13.4497 13 13.4497 L 12.7539 13.4614 Z" stroke-linecap="round" /></g><g transform="matrix(0.67 0 0 0.67 11.33 7.33)"  ><path style="stroke: none; stroke-width: 1; stroke-dasharray: none; stroke-linecap: butt; stroke-dashoffset: 0; stroke-linejoin: miter; stroke-miterlimit: 4; fill: rgb(221,60,113); fill-rule: nonzero; opacity: 1;"  transform=" translate(-17, -11)" d="M 17.2226 7.45557 C 18.2578 7.50682 19.244 7.91375 20.0137 8.60791 L 20.1758 8.76123 L 20.1767 8.76318 L 21.707 10.2925 L 21.7734 10.3667 C 21.919 10.5445 21.9999 10.7677 22 10.9995 C 22 11.2315 21.9191 11.4554 21.7734 11.6333 L 21.707 11.7075 L 20.1767 13.2368 L 20.1758 13.2388 C 19.3851 14.0263 18.332 14.4895 17.2226 14.5444 L 17 14.5503 C 15.8096 14.5503 14.6676 14.0788 13.8242 13.2388 L 13.8232 13.2368 L 12.293 11.7075 C 11.9024 11.317 11.9024 10.683 12.293 10.2925 L 13.8232 8.76318 L 13.8242 8.76123 L 13.9863 8.60791 C 14.811 7.86414 15.8842 7.44971 17 7.44971 L 17.2226 7.45557 Z M 16.7539 9.46143 C 16.1835 9.51782 15.6462 9.76862 15.2363 10.1763 L 15.2373 10.1772 L 14.414 10.9995 L 15.2373 11.8228 L 15.2363 11.8228 C 15.7048 12.2889 16.3391 12.5503 17 12.5503 L 17.2461 12.5376 C 17.8164 12.4812 18.3528 12.2304 18.7627 11.8228 L 19.5849 10.9995 L 18.7627 10.1772 L 18.7627 10.1763 C 18.2943 9.71074 17.6604 9.44971 17 9.44971 L 16.7539 9.46143 Z" stroke-linecap="round" /></g></g></g></svg>