<svg xmlns="http://www.w3.org/2000/svg" width="24" height="24"  viewBox="0 0 24 24"><g transform="matrix(1 0 0 1 0 0)"  ><g style=""   ><g transform="matrix(1 0 0 1 6.5 6.5)"  ><path style="stroke: none; stroke-width: 1; stroke-dasharray: none; stroke-linecap: butt; stroke-dashoffset: 0; stroke-linejoin: miter; stroke-miterlimit: 4; fill: rgb(86,93,109); fill-rule: nonzero; opacity: 1;"  transform=" translate(-6.5, -6.5)" d="M 4 4 L 4 9 L 9 9 L 9 4 L 4 4 Z M 11 9 C 11 10.1046 10.1046 11 9 11 L 4 11 C 2.89543 11 2 10.1046 2 9 L 2 4 C 2 2.89543 2.89543 2 4 2 L 9 2 C 10.1046 2 11 2.89543 11 4 L 11 9 Z" stroke-linecap="round" /></g><g transform="matrix(1 0 0 1 17.5 6.5)"  ><path style="stroke: none; stroke-width: 1; stroke-dasharray: none; stroke-linecap: butt; stroke-dashoffset: 0; stroke-linejoin: miter; stroke-miterlimit: 4; fill: rgb(86,93,109); fill-rule: nonzero; opacity: 1;"  transform=" translate(-17.5, -6.5)" d="M 15 4 L 15 9 L 20 9 L 20 4 L 15 4 Z M 22 9 C 22 10.1046 21.1046 11 20 11 L 15 11 C 13.8954 11 13 10.1046 13 9 L 13 4 C 13 2.89543 13.8954 2 15 2 L 20 2 C 21.1046 2 22 2.89543 22 4 L 22 9 Z" stroke-linecap="round" /></g><g transform="matrix(1 0 0 1 17.5 17.5)"  ><path style="stroke: none; stroke-width: 1; stroke-dasharray: none; stroke-linecap: butt; stroke-dashoffset: 0; stroke-linejoin: miter; stroke-miterlimit: 4; fill: rgb(86,93,109); fill-rule: nonzero; opacity: 1;"  transform=" translate(-17.5, -17.5)" d="M 15 15 L 15 20 L 20 20 L 20 15 L 15 15 Z M 22 20 C 22 21.1046 21.1046 22 20 22 L 15 22 C 13.8954 22 13 21.1046 13 20 L 13 15 C 13 13.8954 13.8954 13 15 13 L 20 13 C 21.1046 13 22 13.8954 22 15 L 22 20 Z" stroke-linecap="round" /></g><g transform="matrix(1 0 0 1 6.5 17.5)"  ><path style="stroke: none; stroke-width: 1; stroke-dasharray: none; stroke-linecap: butt; stroke-dashoffset: 0; stroke-linejoin: miter; stroke-miterlimit: 4; fill: rgb(86,93,109); fill-rule: nonzero; opacity: 1;"  transform=" translate(-6.5, -17.5)" d="M 4 15 L 4 20 L 9 20 L 9 15 L 4 15 Z M 11 20 C 11 21.1046 10.1046 22 9 22 L 4 22 C 2.89543 22 2 21.1046 2 20 L 2 15 C 2 13.8954 2.89543 13 4 13 L 9 13 C 10.1046 13 11 13.8954 11 15 L 11 20 Z" stroke-linecap="round" /></g></g></g></svg>