<svg xmlns="http://www.w3.org/2000/svg" viewBox="0 0 96 40"><g transform="matrix(1 0 0 1 0 0)"  ><g style=""   ><g transform="matrix(1 0 0 1 48 20)"  ><g style=""   ><g transform="matrix(1 0 0 1 17.19 1.7)"  ><path style="stroke: rgb(23,26,31); stroke-width: 1; stroke-dasharray: none; stroke-linecap: butt; stroke-dashoffset: 0; stroke-linejoin: miter; stroke-miterlimit: 4; fill: none; fill-rule: nonzero; opacity: 0.35;"  transform=" translate(-65.19, -21.7)" d="M 55.0532 20.1702 C 55.0532 18.2372 56.6202 16.6702 58.5532 16.6702 L 71.8298 16.6702 C 73.7628 16.6702 75.3298 18.2372 75.3298 20.1702 L 75.3298 23.234 C 75.3298 25.167 73.7628 26.734 71.8298 26.734 L 58.5532 26.734 C 56.6202 26.734 55.0532 25.167 55.0532 23.234 L 55.0532 20.1702 Z" stroke-linecap="round" /></g><g transform="matrix(1 0 0 1 29.28 2.22)"  ><path style="stroke: none; stroke-width: 1; stroke-dasharray: none; stroke-linecap: butt; stroke-dashoffset: 0; stroke-linejoin: miter; stroke-miterlimit: 4; fill: rgb(23,26,31); fill-rule: nonzero; opacity: 0.4;"  transform=" translate(-77.28, -22.22)" d="M 76.6808 20.4255 L 76.6808 24.0173 C 77.4035 23.7131 77.8734 23.0054 77.8734 22.2214 C 77.8734 21.4374 77.4035 20.7297 76.6808 20.4255 Z" stroke-linecap="round" /></g><g transform="matrix(1 0 0 1 17.19 1.7)"  ><path style="stroke: none; stroke-width: 1; stroke-dasharray: none; stroke-linecap: butt; stroke-dashoffset: 0; stroke-linejoin: miter; stroke-miterlimit: 4; fill: rgb(23,26,31); fill-rule: nonzero; opacity: 1;"  transform=" translate(-65.19, -21.7)" d="M 56.2553 19.8723 C 56.2553 18.7677 57.1508 17.8723 58.2553 17.8723 L 72.1277 17.8723 C 73.2322 17.8723 74.1277 18.7677 74.1277 19.8723 L 74.1277 23.5319 C 74.1277 24.6364 73.2322 25.5319 72.1277 25.5319 L 58.2553 25.5319 C 57.1508 25.5319 56.2553 24.6364 56.2553 23.5319 L 56.2553 19.8723 Z" stroke-linecap="round" /></g><g transform="matrix(1 0 0 1 -6.64 2.06)"  ><path style="stroke: none; stroke-width: 1; stroke-dasharray: none; stroke-linecap: butt; stroke-dashoffset: 0; stroke-linejoin: miter; stroke-miterlimit: 4; fill: rgb(23,26,31); fill-rule: evenodd; opacity: 1;"  transform=" translate(-41.36, -22.06)" d="M 41.3621 19.2234 C 43.4613 19.2235 45.4802 20.0468 47.0016 21.5232 C 47.1162 21.6372 47.2993 21.6357 47.4121 21.52 L 48.5072 20.3918 C 48.5644 20.3331 48.5962 20.2536 48.5957 20.1708 C 48.5953 20.0881 48.5625 20.0089 48.5047 19.9509 C 44.5116 16.0447 38.212 16.0447 34.2189 19.9509 C 34.161 20.0089 34.1282 20.088 34.1277 20.1707 C 34.1271 20.2535 34.1589 20.3331 34.216 20.3918 L 35.3115 21.52 C 35.4242 21.6359 35.6075 21.6374 35.722 21.5232 C 37.2435 20.0467 39.2627 19.2234 41.3621 19.2234 Z M 41.3923 22.6292 C 42.5456 22.6291 43.6579 23.0667 44.5128 23.857 C 44.6284 23.9691 44.8106 23.9667 44.9233 23.8515 L 46.0172 22.7233 C 46.0748 22.6642 46.1067 22.5839 46.1059 22.5005 C 46.1051 22.417 46.0715 22.3374 46.0127 22.2795 C 43.4093 19.8075 39.3775 19.8075 36.774 22.2795 C 36.7152 22.3374 36.6816 22.4171 36.6809 22.5005 C 36.6801 22.584 36.7122 22.6642 36.7699 22.7233 L 37.8634 23.8515 C 37.9762 23.9667 38.1583 23.9691 38.274 23.857 C 39.1283 23.0673 40.2397 22.6297 41.3923 22.6292 Z M 43.6166 24.8312 C 43.6183 24.9149 43.5861 24.9955 43.5276 25.0541 L 41.6354 27.0032 C 41.58 27.0605 41.5044 27.0928 41.4255 27.0928 C 41.3466 27.0928 41.2709 27.0605 41.2155 27.0032 L 39.323 25.0541 C 39.2645 24.9955 39.2324 24.9148 39.2341 24.8311 C 39.2358 24.7475 39.2713 24.6683 39.3322 24.6122 C 40.5406 23.5689 42.3104 23.5689 43.5188 24.6122 C 43.5796 24.6683 43.615 24.7475 43.6166 24.8312 Z" stroke-linecap="round" /></g><g transform="matrix(1 0 0 1 -26.21 2.98)"  ><path style="stroke: none; stroke-width: 1; stroke-dasharray: none; stroke-linecap: butt; stroke-dashoffset: 0; stroke-linejoin: miter; stroke-miterlimit: 4; fill: rgb(23,26,31); fill-rule: nonzero; opacity: 1;"  transform=" translate(-21.79, -22.98)" d="M 20.5106 19.5744 C 20.5106 19.1044 20.8917 18.7234 21.3617 18.7234 L 22.2128 18.7234 C 22.6828 18.7234 23.0638 19.1044 23.0638 19.5744 L 23.0638 26.3829 C 23.0638 26.853 22.6828 27.234 22.2128 27.234 L 21.3617 27.234 C 20.8917 27.234 20.5106 26.853 20.5106 26.3829 L 20.5106 19.5744 Z" stroke-linecap="round" /></g><g transform="matrix(1 0 0 1 -21.96 2.13)"  ><path style="stroke: none; stroke-width: 1; stroke-dasharray: none; stroke-linecap: butt; stroke-dashoffset: 0; stroke-linejoin: miter; stroke-miterlimit: 4; fill: rgb(23,26,31); fill-rule: nonzero; opacity: 1;"  transform=" translate(-26.04, -22.13)" d="M 24.766 17.8723 C 24.766 17.4023 25.147 17.0212 25.617 17.0212 L 26.4681 17.0212 C 26.9381 17.0212 27.3191 17.4023 27.3191 17.8723 L 27.3191 26.3829 C 27.3191 26.853 26.9381 27.234 26.4681 27.234 L 25.617 27.234 C 25.147 27.234 24.766 26.853 24.766 26.3829 L 24.766 17.8723 Z" stroke-linecap="round" /></g><g transform="matrix(1 0 0 1 -30.47 4.47)"  ><path style="stroke: none; stroke-width: 1; stroke-dasharray: none; stroke-linecap: butt; stroke-dashoffset: 0; stroke-linejoin: miter; stroke-miterlimit: 4; fill: rgb(23,26,31); fill-rule: nonzero; opacity: 1;"  transform=" translate(-17.53, -24.47)" d="M 16.2553 22.5531 C 16.2553 22.0831 16.6364 21.7021 17.1064 21.7021 L 17.9574 21.7021 C 18.4275 21.7021 18.8085 22.0831 18.8085 22.5531 L 18.8085 26.3829 C 18.8085 26.853 18.4275 27.234 17.9574 27.234 L 17.1064 27.234 C 16.6364 27.234 16.2553 26.853 16.2553 26.3829 L 16.2553 22.5531 Z" stroke-linecap="round" /></g><g transform="matrix(1 0 0 1 -34.72 5.53)"  ><path style="stroke: none; stroke-width: 1; stroke-dasharray: none; stroke-linecap: butt; stroke-dashoffset: 0; stroke-linejoin: miter; stroke-miterlimit: 4; fill: rgb(23,26,31); fill-rule: nonzero; opacity: 1;"  transform=" translate(-13.28, -25.53)" d="M 12 24.6808 C 12 24.2108 12.381 23.8297 12.8511 23.8297 L 13.7021 23.8297 C 14.1722 23.8297 14.5532 24.2108 14.5532 24.6808 L 14.5532 26.3829 C 14.5532 26.853 14.1722 27.234 13.7021 27.234 L 12.8511 27.234 C 12.381 27.234 12 26.853 12 26.3829 L 12 24.6808 Z" stroke-linecap="round" /></g></g></g></g></g></svg>