<svg xmlns="http://www.w3.org/2000/svg" width="24" height="24"  viewBox="0 0 24 24"><g transform="matrix(1 0 0 1 0 0)"  ><g style=""   ><g transform="matrix(1 0 0 1 17.42 6.58)"  ><path style="stroke: none; stroke-width: 1; stroke-dasharray: none; stroke-linecap: butt; stroke-dashoffset: 0; stroke-linejoin: miter; stroke-miterlimit: 4; fill: rgb(23,26,31); fill-rule: nonzero; opacity: 1;"  transform=" translate(-17.42, -6.58)" d="M 11.8424 6.40041 C 11.8424 5.3534 12.2531 4.34735 12.986 3.59963 L 15.2926 1.29299 C 15.6831 0.902523 16.3161 0.902638 16.7067 1.29299 C 17.0972 1.68351 17.0972 2.31653 16.7067 2.70705 L 14.4137 5.00002 L 14.2848 5.14651 C 14 5.50032 13.8424 5.94237 13.8424 6.40041 C 13.8425 6.92363 14.0475 7.42609 14.4137 7.79983 L 16.1998 9.58596 L 16.3463 9.71584 C 16.7001 10.0005 17.1423 10.1572 17.6002 10.1572 L 17.7955 10.1485 C 18.2473 10.1041 18.6726 9.90639 18.9996 9.58596 L 21.2926 7.29299 C 21.6831 6.90252 22.3161 6.90264 22.7067 7.29299 C 23.0972 7.68351 23.0972 8.31653 22.7067 8.70705 L 20.4069 11.0069 L 20.4 11.0147 L 20.399 11.0137 C 19.698 11.7007 18.7714 12.1046 17.7955 12.1524 L 17.6002 12.1572 C 16.5532 12.1572 15.5481 11.7466 14.8004 11.0137 L 14.7926 11.0069 L 12.986 9.20022 C 12.2531 8.45259 11.8425 7.44728 11.8424 6.40041 Z" stroke-linecap="round" /></g><g transform="matrix(1 0 0 1 12.02 12.65)"  ><path style="stroke: none; stroke-width: 1; stroke-dasharray: none; stroke-linecap: butt; stroke-dashoffset: 0; stroke-linejoin: miter; stroke-miterlimit: 4; fill: rgb(23,26,31); fill-rule: nonzero; opacity: 1;"  transform=" translate(-12.02, -12.65)" d="M 2.67609 2.51877 C 3.06917 2.2041 3.64357 2.22942 4.00714 2.59299 L 22.7073 21.2932 L 22.7757 21.3684 C 23.0963 21.7611 23.0735 22.341 22.7073 22.7072 C 22.3411 23.0735 21.7612 23.0962 21.3685 22.7756 L 21.2933 22.7072 L 14.9993 16.4133 L 14.1068 17.3069 C 14.0911 17.3225 14.0755 17.3382 14.0589 17.3528 C 12.9452 18.3273 11.1252 18.417 9.99933 17.4084 L 9.89288 17.3069 L 2.59308 10.007 L 2.59308 10.0061 C 2.10262 9.52352 1.71222 8.94903 1.44562 8.31467 C 1.21109 7.75654 1.07627 7.16214 1.0462 6.55881 L 1.03937 6.30002 C 1.03937 5.60821 1.17762 4.92315 1.44562 4.28537 C 1.71356 3.64782 2.10598 3.07019 2.59991 2.58615 L 2.67609 2.51877 Z M 3.04327 6.4592 C 3.06176 6.8304 3.14511 7.19587 3.28937 7.53928 C 3.43365 7.88265 3.63682 8.19791 3.88898 8.47092 L 4.00031 8.58615 L 11.3069 15.8928 L 11.3655 15.9436 C 11.6749 16.181 12.3008 16.2149 12.723 15.8615 L 13.5853 14.9992 L 3.40363 4.8176 C 3.36223 4.89678 3.3241 4.97811 3.28937 5.06076 C 3.12453 5.45316 3.03937 5.8744 3.03937 6.30002 L 3.04327 6.4592 Z" stroke-linecap="round" /></g><g transform="matrix(1 0 0 1 5.3 18.65)"  ><path style="stroke: none; stroke-width: 1; stroke-dasharray: none; stroke-linecap: butt; stroke-dashoffset: 0; stroke-linejoin: miter; stroke-miterlimit: 4; fill: rgb(23,26,31); fill-rule: nonzero; opacity: 1;"  transform=" translate(-5.3, -18.65)" d="M 7.87538 14.7197 C 8.27066 14.4025 8.84909 14.4299 9.21229 14.7988 C 9.59973 15.1924 9.59514 15.8255 9.20155 16.2129 L 2.80116 22.5127 C 2.40759 22.8999 1.77448 22.8954 1.3871 22.502 C 0.99966 22.1084 1.00523 21.4744 1.39882 21.0869 L 7.79823 14.7871 L 7.87538 14.7197 Z" stroke-linecap="round" /></g><g transform="matrix(1 0 0 1 15.5 8.5)"  ><path style="stroke: none; stroke-width: 1; stroke-dasharray: none; stroke-linecap: butt; stroke-dashoffset: 0; stroke-linejoin: miter; stroke-miterlimit: 4; fill: rgb(23,26,31); fill-rule: nonzero; opacity: 1;"  transform=" translate(-15.5, -8.5)" d="M 18.3691 4.22462 C 18.7619 3.90427 19.3409 3.92686 19.707 4.29298 C 20.0731 4.65909 20.0957 5.2381 19.7754 5.63087 L 19.707 5.70704 L 12.707 12.707 C 12.3165 13.0976 11.6835 13.0976 11.293 12.707 C 10.9024 12.3165 10.9024 11.6835 11.293 11.293 L 18.293 4.29298 L 18.3691 4.22462 Z" stroke-linecap="round" /></g></g></g></svg>