<svg xmlns="http://www.w3.org/2000/svg" viewBox="0 0 70 40"><g transform="matrix(1 0 0 1 -1 0)"  ><g style=""   ><g transform="matrix(1 0 0 1 36 20)"  ><g style=""   ><g transform="matrix(1 0 0 1 -2.07 2.14)"  ><path style="stroke: none; stroke-width: 1; stroke-dasharray: none; stroke-linecap: butt; stroke-dashoffset: 0; stroke-linejoin: miter; stroke-miterlimit: 4; fill: rgb(23,26,31); fill-rule: nonzero; opacity: 1;"  transform=" translate(-33.93, -22.14)" d="M 33.7866 16.7856 C 31.5754 16.7856 30 18.2974 30 20.3673 L 30 20.3815 C 30 22.3171 31.3705 23.7442 33.3274 23.7442 C 34.7261 23.7442 35.6163 23.0307 35.9907 22.2253 L 36.132 22.2253 C 36.132 22.303 36.1249 22.3807 36.1249 22.4584 C 36.0472 24.4082 35.362 25.9907 33.7442 25.9907 C 32.847 25.9907 32.2183 25.5244 31.9498 24.8109 L 31.9286 24.7403 L 30.1342 24.7403 L 30.1484 24.818 C 30.4733 26.3792 31.8721 27.4884 33.7442 27.4884 C 36.3086 27.4884 37.8557 25.4538 37.8557 22.0204 L 37.8557 22.0063 C 37.8557 18.3328 35.9624 16.7856 33.7866 16.7856 Z M 33.7795 22.3454 C 32.6209 22.3454 31.7803 21.4977 31.7803 20.3179 L 31.7803 20.3038 C 31.7803 19.1664 32.6774 18.2692 33.8007 18.2692 C 34.931 18.2692 35.8141 19.1805 35.8141 20.3461 L 35.8141 20.3603 C 35.8141 21.5118 34.931 22.3454 33.7795 22.3454 Z" stroke-linecap="round" /></g><g transform="matrix(1 0 0 1 4.72 2.13)"  ><path style="stroke: none; stroke-width: 1; stroke-dasharray: none; stroke-linecap: butt; stroke-dashoffset: 0; stroke-linejoin: miter; stroke-miterlimit: 4; fill: rgb(23,26,31); fill-rule: nonzero; opacity: 1;"  transform=" translate(-40.72, -22.13)" d="M 40.7158 20.6287 C 41.3657 20.6287 41.839 20.1342 41.839 19.5125 C 41.839 18.8838 41.3657 18.3963 40.7158 18.3963 C 40.0729 18.3963 39.5925 18.8838 39.5925 19.5125 C 39.5925 20.1342 40.0729 20.6287 40.7158 20.6287 Z M 40.7158 25.8706 C 41.3657 25.8706 41.839 25.3831 41.839 24.7544 C 41.839 24.1257 41.3657 23.6382 40.7158 23.6382 C 40.0729 23.6382 39.5925 24.1257 39.5925 24.7544 C 39.5925 25.3831 40.0729 25.8706 40.7158 25.8706 Z" stroke-linecap="round" /></g><g transform="matrix(1 0 0 1 11.58 2.14)"  ><path style="stroke: none; stroke-width: 1; stroke-dasharray: none; stroke-linecap: butt; stroke-dashoffset: 0; stroke-linejoin: miter; stroke-miterlimit: 4; fill: rgb(23,26,31); fill-rule: nonzero; opacity: 1;"  transform=" translate(-47.58, -22.14)" d="M 48.521 27.234 L 50.2659 27.234 L 50.2659 25.2772 L 51.6364 25.2772 L 51.6364 23.7724 L 50.2659 23.7724 L 50.2659 17.04 L 47.6873 17.04 C 46.3027 19.1452 44.8545 21.4906 43.5334 23.7866 L 43.5334 25.2772 L 48.521 25.2772 L 48.521 27.234 Z M 45.2289 23.8148 L 45.2289 23.7088 C 46.2179 21.978 47.3977 20.0918 48.4432 18.4953 L 48.5492 18.4953 L 48.5492 23.8148 L 45.2289 23.8148 Z" stroke-linecap="round" /></g><g transform="matrix(1 0 0 1 19.1 2.14)"  ><path style="stroke: none; stroke-width: 1; stroke-dasharray: none; stroke-linecap: butt; stroke-dashoffset: 0; stroke-linejoin: miter; stroke-miterlimit: 4; fill: rgb(23,26,31); fill-rule: nonzero; opacity: 1;"  transform=" translate(-55.1, -22.14)" d="M 55.5137 27.234 L 57.3364 27.234 L 57.3364 17.04 L 55.5208 17.04 L 52.8575 18.9121 L 52.8575 20.6287 L 55.3936 18.8343 L 55.5137 18.8343 L 55.5137 27.234 Z" stroke-linecap="round" /></g></g></g></g></g></svg>