<svg xmlns="http://www.w3.org/2000/svg" width="24" height="24"  viewBox="0 0 24 24"><g transform="matrix(1 0 0 1 0 0)"  ><g style=""   ><g transform="matrix(1 0 0 1 12 12)"  ><path style="stroke: none; stroke-width: 1; stroke-dasharray: none; stroke-linecap: butt; stroke-dashoffset: 0; stroke-linejoin: miter; stroke-miterlimit: 4; fill: rgb(224,82,82); fill-rule: nonzero; opacity: 1;"  transform=" translate(-12, -12)" d="M 20 11 C 20.5523 11 21 11.4477 21 12 C 21 12.5523 20.5523 13 20 13 L 4 13 C 3.44772 13 3 12.5523 3 12 C 3 11.4477 3.44772 11 4 11 L 20 11 Z" stroke-linecap="round" /></g><g transform="matrix(1 0 0 1 12 18)"  ><path style="stroke: none; stroke-width: 1; stroke-dasharray: none; stroke-linecap: butt; stroke-dashoffset: 0; stroke-linejoin: miter; stroke-miterlimit: 4; fill: rgb(224,82,82); fill-rule: nonzero; opacity: 1;"  transform=" translate(-12, -18)" d="M 20 17 C 20.5523 17 21 17.4477 21 18 C 21 18.5523 20.5523 19 20 19 L 4 19 C 3.44772 19 3 18.5523 3 18 C 3 17.4477 3.44772 17 4 17 L 20 17 Z" stroke-linecap="round" /></g><g transform="matrix(1 0 0 1 12 6)"  ><path style="stroke: none; stroke-width: 1; stroke-dasharray: none; stroke-linecap: butt; stroke-dashoffset: 0; stroke-linejoin: miter; stroke-miterlimit: 4; fill: rgb(224,82,82); fill-rule: nonzero; opacity: 1;"  transform=" translate(-12, -6)" d="M 20 5 C 20.5523 5 21 5.44772 21 6 C 21 6.55228 20.5523 7 20 7 L 4 7 C 3.44772 7 3 6.55228 3 6 C 3 5.44772 3.44772 5 4 5 L 20 5 Z" stroke-linecap="round" /></g></g></g></svg>