<svg xmlns="http://www.w3.org/2000/svg" width="28" height="28"  viewBox="0 0 28 28"><g transform="matrix(1 0 0 1 0 0)"  ><g style=""   ><g transform="matrix(1.17 0 0 1.17 11.67 3.5)"  ><path style="stroke: none; stroke-width: 1; stroke-dasharray: none; stroke-linecap: butt; stroke-dashoffset: 0; stroke-linejoin: miter; stroke-miterlimit: 4; fill: rgb(23,26,31); fill-rule: nonzero; opacity: 1;"  transform=" translate(-10, -3)" d="M 9 4 L 9 2 C 9 1.44772 9.44772 1 10 1 C 10.5523 1 11 1.44772 11 2 L 11 4 C 11 4.55228 10.5523 5 10 5 C 9.44772 5 9 4.55228 9 4 Z" stroke-linecap="round" /></g><g transform="matrix(1.17 0 0 1.17 16.33 3.5)"  ><path style="stroke: none; stroke-width: 1; stroke-dasharray: none; stroke-linecap: butt; stroke-dashoffset: 0; stroke-linejoin: miter; stroke-miterlimit: 4; fill: rgb(23,26,31); fill-rule: nonzero; opacity: 1;"  transform=" translate(-14, -3)" d="M 13 4 L 13 2 C 13 1.44772 13.4477 1 14 1 C 14.5523 1 15 1.44772 15 2 L 15 4 C 15 4.55228 14.5523 5 14 5 C 13.4477 5 13 4.55228 13 4 Z" stroke-linecap="round" /></g><g transform="matrix(1.17 0 0 1.17 14.58 16.92)"  ><path style="stroke: none; stroke-width: 1; stroke-dasharray: none; stroke-linecap: butt; stroke-dashoffset: 0; stroke-linejoin: miter; stroke-miterlimit: 4; fill: rgb(23,26,31); fill-rule: nonzero; opacity: 1;"  transform=" translate(-12.5, -14.5)" d="M 2 17 L 2 9 C 2 8.46957 2.21086 7.96101 2.58594 7.58594 C 2.96101 7.21087 3.46957 7 4 7 L 18 7 L 18.248 7.00586 C 19.4838 7.06719 20.6561 7.58579 21.5352 8.46484 C 22.4728 9.40253 23 10.6739 23 12 C 23 13.3261 22.4728 14.5975 21.5352 15.5352 C 20.6561 16.4142 19.4838 16.9328 18.248 16.9941 L 18 17 C 18 18.3261 17.4728 19.5975 16.5352 20.5352 C 15.5975 21.4728 14.3261 22 13 22 L 7 22 C 5.67392 22 4.40253 21.4728 3.46484 20.5352 C 2.52716 19.5975 2 18.3261 2 17 Z M 4 17 C 4 17.7956 4.3163 18.5585 4.87891 19.1211 C 5.44152 19.6837 6.20435 20 7 20 L 13 20 C 13.7956 20 14.5585 19.6837 15.1211 19.1211 C 15.6837 18.5585 16 17.7956 16 17 L 16 9 L 4 9 L 4 17 Z M 18 15 L 18.2969 14.9854 C 18.9835 14.9171 19.6289 14.6133 20.1211 14.1211 C 20.6837 13.5585 21 12.7956 21 12 C 21 11.2044 20.6837 10.4415 20.1211 9.87891 C 19.6289 9.38671 18.9835 9.08291 18.2969 9.01465 L 18 9 L 18 15 Z" stroke-linecap="round" /></g><g transform="matrix(1.17 0 0 1.17 7 3.5)"  ><path style="stroke: none; stroke-width: 1; stroke-dasharray: none; stroke-linecap: butt; stroke-dashoffset: 0; stroke-linejoin: miter; stroke-miterlimit: 4; fill: rgb(23,26,31); fill-rule: nonzero; opacity: 1;"  transform=" translate(-6, -3)" d="M 5 4 L 5 2 C 5 1.44772 5.44772 1 6 1 C 6.55228 1 7 1.44772 7 2 L 7 4 C 7 4.55228 6.55228 5 6 5 C 5.44772 5 5 4.55228 5 4 Z" stroke-linecap="round" /></g></g></g></svg>