<svg xmlns="http://www.w3.org/2000/svg" width="28" height="28"  viewBox="0 0 28 28"><g transform="matrix(1 0 0 1 0 0)"  ><g style=""   ><g transform="matrix(1.17 0 0 1.17 14 25.67)"  ><path style="stroke: none; stroke-width: 1; stroke-dasharray: none; stroke-linecap: butt; stroke-dashoffset: 0; stroke-linejoin: miter; stroke-miterlimit: 4; fill: rgb(145,103,228); fill-rule: nonzero; opacity: 1;"  transform=" translate(-12, -22)" d="M 16 21 C 16.5523 21 17 21.4477 17 22 C 17 22.5523 16.5523 23 16 23 L 8 23 C 7.44772 23 7 22.5523 7 22 C 7 21.4477 7.44772 21 8 21 L 16 21 Z" stroke-linecap="round" /></g><g transform="matrix(1.17 0 0 1.17 14 11.67)"  ><path style="stroke: none; stroke-width: 1; stroke-dasharray: none; stroke-linecap: butt; stroke-dashoffset: 0; stroke-linejoin: miter; stroke-miterlimit: 4; fill: rgb(145,103,228); fill-rule: nonzero; opacity: 1;"  transform=" translate(-12, -10)" d="M 17 9 C 17.5523 9 18 9.44772 18 10 C 18 10.5523 17.5523 11 17 11 L 7 11 C 6.44772 11 6 10.5523 6 10 C 6 9.44772 6.44772 9 7 9 L 17 9 Z" stroke-linecap="round" /></g><g transform="matrix(1.17 0 0 1.17 14 21.58)"  ><path style="stroke: none; stroke-width: 1; stroke-dasharray: none; stroke-linecap: butt; stroke-dashoffset: 0; stroke-linejoin: miter; stroke-miterlimit: 4; fill: rgb(145,103,228); fill-rule: nonzero; opacity: 1;"  transform=" translate(-12, -18.5)" d="M 11 22 L 11 15 C 11 14.4477 11.4477 14 12 14 C 12.5523 14 13 14.4477 13 15 L 13 22 C 13 22.5523 12.5523 23 12 23 C 11.4477 23 11 22.5523 11 22 Z" stroke-linecap="round" /></g><g transform="matrix(1.17 0 0 1.17 14 9.92)"  ><path style="stroke: none; stroke-width: 1; stroke-dasharray: none; stroke-linecap: butt; stroke-dashoffset: 0; stroke-linejoin: miter; stroke-miterlimit: 4; fill: rgb(145,103,228); fill-rule: nonzero; opacity: 1;"  transform=" translate(-12, -8.5)" d="M 16 10 C 16 8.2935 15.6029 6.5452 14.3008 3 L 9.69922 3 C 8.39705 6.5452 8 8.2935 8 10 L 8.00488 10.1982 C 8.0539 11.1869 8.46859 12.1248 9.17188 12.8281 C 9.92202 13.5783 10.9391 14 12 14 L 12.1982 13.9951 C 13.1869 13.9461 14.1248 13.5314 14.8281 12.8281 C 15.5783 12.078 16 11.0609 16 10 Z M 17.9922 10.2979 C 17.9185 11.7807 17.297 13.1874 16.2422 14.2422 C 15.1874 15.297 13.7807 15.9185 12.2979 15.9922 L 12 16 C 10.4087 16 8.88303 15.3674 7.75781 14.2422 C 6.703 13.1874 6.08146 11.7807 6.00781 10.2979 L 6 10 C 6 7.80734 6.5582 5.6625 8.06348 1.64844 L 8.12891 1.50879 C 8.3041 1.19791 8.63532 1 9 1 L 15 1 C 15.4167 1 15.7901 1.25831 15.9365 1.64844 C 17.4418 5.6625 18 7.80734 18 10 L 17.9922 10.2979 Z" stroke-linecap="round" /></g></g></g></svg>