<svg xmlns="http://www.w3.org/2000/svg" width="16" height="16"  viewBox="0 0 16 16"><g transform="matrix(1 0 0 1 0 0)"  ><g style=""   ><g transform="matrix(0.67 0 0 0.67 8 8)"  ><path style="stroke: none; stroke-width: 1; stroke-dasharray: none; stroke-linecap: butt; stroke-dashoffset: 0; stroke-linejoin: miter; stroke-miterlimit: 4; fill: rgb(255,255,255); fill-rule: nonzero; opacity: 1;"  transform=" translate(-12, -12)" d="M 19 11 C 19.5523 11 20 11.4477 20 12 C 20 12.5523 19.5523 13 19 13 L 5 13 C 4.44772 13 4 12.5523 4 12 C 4 11.4477 4.44772 11 5 11 L 19 11 Z" stroke-linecap="round" /></g><g transform="matrix(0.67 0 0 0.67 8 8)"  ><path style="stroke: none; stroke-width: 1; stroke-dasharray: none; stroke-linecap: butt; stroke-dashoffset: 0; stroke-linejoin: miter; stroke-miterlimit: 4; fill: rgb(255,255,255); fill-rule: nonzero; opacity: 1;"  transform=" translate(-12, -12)" d="M 11 19 L 11 5 C 11 4.44772 11.4477 4 12 4 C 12.5523 4 13 4.44772 13 5 L 13 19 C 13 19.5523 12.5523 20 12 20 C 11.4477 20 11 19.5523 11 19 Z" stroke-linecap="round" /></g></g></g></svg>