<svg xmlns="http://www.w3.org/2000/svg" width="16" height="16"  viewBox="0 0 16 16"><g transform="matrix(1 0 0 1 0 0)"  ><g style=""   ><g transform="matrix(0.67 0 0 0.67 8 8)"  ><path style="stroke: none; stroke-width: 1; stroke-dasharray: none; stroke-linecap: butt; stroke-dashoffset: 0; stroke-linejoin: miter; stroke-miterlimit: 4; fill: rgb(86,93,109); fill-rule: nonzero; opacity: 1;"  transform=" translate(-12, -12)" d="M 21 12 C 21 7.02944 16.9706 3 12 3 C 7.02944 3 3 7.02944 3 12 C 3 16.9706 7.02944 21 12 21 C 16.9706 21 21 16.9706 21 12 Z M 23 12 C 23 18.0751 18.0751 23 12 23 C 5.92487 23 1 18.0751 1 12 C 1 5.92487 5.92487 1 12 1 C 18.0751 1 23 5.92487 23 12 Z" stroke-linecap="round" /></g><g transform="matrix(0.67 0 0 0.67 8 9.33)"  ><path style="stroke: none; stroke-width: 1; stroke-dasharray: none; stroke-linecap: butt; stroke-dashoffset: 0; stroke-linejoin: miter; stroke-miterlimit: 4; fill: rgb(86,93,109); fill-rule: nonzero; opacity: 1;"  transform=" translate(-12, -14)" d="M 11 16 L 11 12 C 11 11.4477 11.4477 11 12 11 C 12.5523 11 13 11.4477 13 12 L 13 16 C 13 16.5523 12.5523 17 12 17 C 11.4477 17 11 16.5523 11 16 Z" stroke-linecap="round" /></g><g transform="matrix(0.67 0 0 0.67 8 5.33)"  ><path style="stroke: none; stroke-width: 1; stroke-dasharray: none; stroke-linecap: butt; stroke-dashoffset: 0; stroke-linejoin: miter; stroke-miterlimit: 4; fill: rgb(86,93,109); fill-rule: nonzero; opacity: 1;"  transform=" translate(-12, -8)" d="M 12.0098 7 L 12.1123 7.00488 C 12.6165 7.05611 13.0098 7.48224 13.0098 8 C 13.0098 8.51776 12.6165 8.94389 12.1123 8.99512 L 12.0098 9 L 12 9 C 11.4477 9 11 8.55228 11 8 C 11 7.44772 11.4477 7 12 7 L 12.0098 7 Z" stroke-linecap="round" /></g></g></g></svg>