<svg xmlns="http://www.w3.org/2000/svg" width="20" height="20"  viewBox="0 0 20 20"><g transform="matrix(1 0 0 1 0 0)"  ><g style=""   ><g transform="matrix(0.83 0 0 0.83 10 10)"  ><path style="stroke: none; stroke-width: 1; stroke-dasharray: none; stroke-linecap: butt; stroke-dashoffset: 0; stroke-linejoin: miter; stroke-miterlimit: 4; fill: rgb(24,24,33); fill-rule: nonzero; opacity: 1;"  transform=" translate(-12, -12)" d="M 14.293 5.29295 C 14.6835 4.90243 15.3165 4.90243 15.707 5.29295 C 16.0976 5.68348 16.0976 6.31649 15.707 6.70702 L 10.4141 12 L 15.707 17.293 L 15.7754 17.3691 C 16.0957 17.7619 16.0731 18.3409 15.707 18.707 C 15.3409 19.0731 14.7619 19.0957 14.3691 18.7754 L 14.293 18.707 L 8.29297 12.707 C 7.90245 12.3165 7.90245 11.6835 8.29297 11.293 L 14.293 5.29295 Z" stroke-linecap="round" /></g></g></g></svg>