<svg xmlns="http://www.w3.org/2000/svg" width="24" height="24"  viewBox="0 0 24 24"><g transform="matrix(1 0 0 1 0 0)"  ><g style=""   ><g transform="matrix(1 0 0 1 3 12)"  ><path style="stroke: none; stroke-width: 1; stroke-dasharray: none; stroke-linecap: butt; stroke-dashoffset: 0; stroke-linejoin: miter; stroke-miterlimit: 4; fill: rgb(221,60,113); fill-rule: nonzero; opacity: 1;"  transform=" translate(-3, -12)" d="M 3.00977 11 L 3.1123 11.0049 C 3.61655 11.0561 4.00977 11.4822 4.00977 12 C 4.00977 12.5178 3.61655 12.9439 3.1123 12.9951 L 3.00977 13 L 3 13 C 2.44772 13 2 12.5523 2 12 C 2 11.4477 2.44772 11 3 11 L 3.00977 11 Z" stroke-linecap="round" /></g><g transform="matrix(1 0 0 1 3 18)"  ><path style="stroke: none; stroke-width: 1; stroke-dasharray: none; stroke-linecap: butt; stroke-dashoffset: 0; stroke-linejoin: miter; stroke-miterlimit: 4; fill: rgb(221,60,113); fill-rule: nonzero; opacity: 1;"  transform=" translate(-3, -18)" d="M 3.00977 17 L 3.1123 17.0049 C 3.61655 17.0561 4.00977 17.4822 4.00977 18 C 4.00977 18.5178 3.61655 18.9439 3.1123 18.9951 L 3.00977 19 L 3 19 C 2.44772 19 2 18.5523 2 18 C 2 17.4477 2.44772 17 3 17 L 3.00977 17 Z" stroke-linecap="round" /></g><g transform="matrix(1 0 0 1 3 6)"  ><path style="stroke: none; stroke-width: 1; stroke-dasharray: none; stroke-linecap: butt; stroke-dashoffset: 0; stroke-linejoin: miter; stroke-miterlimit: 4; fill: rgb(221,60,113); fill-rule: nonzero; opacity: 1;"  transform=" translate(-3, -6)" d="M 3.00977 5 L 3.1123 5.00488 C 3.61655 5.05611 4.00977 5.48224 4.00977 6 C 4.00977 6.51776 3.61655 6.94389 3.1123 6.99512 L 3.00977 7 L 3 7 C 2.44772 7 2 6.55228 2 6 C 2 5.44772 2.44772 5 3 5 L 3.00977 5 Z" stroke-linecap="round" /></g><g transform="matrix(1 0 0 1 14.5 12)"  ><path style="stroke: none; stroke-width: 1; stroke-dasharray: none; stroke-linecap: butt; stroke-dashoffset: 0; stroke-linejoin: miter; stroke-miterlimit: 4; fill: rgb(221,60,113); fill-rule: nonzero; opacity: 1;"  transform=" translate(-14.5, -12)" d="M 21 11 C 21.5523 11 22 11.4477 22 12 C 22 12.5523 21.5523 13 21 13 L 8 13 C 7.44772 13 7 12.5523 7 12 C 7 11.4477 7.44772 11 8 11 L 21 11 Z" stroke-linecap="round" /></g><g transform="matrix(1 0 0 1 14.5 18)"  ><path style="stroke: none; stroke-width: 1; stroke-dasharray: none; stroke-linecap: butt; stroke-dashoffset: 0; stroke-linejoin: miter; stroke-miterlimit: 4; fill: rgb(221,60,113); fill-rule: nonzero; opacity: 1;"  transform=" translate(-14.5, -18)" d="M 21 17 C 21.5523 17 22 17.4477 22 18 C 22 18.5523 21.5523 19 21 19 L 8 19 C 7.44772 19 7 18.5523 7 18 C 7 17.4477 7.44772 17 8 17 L 21 17 Z" stroke-linecap="round" /></g><g transform="matrix(1 0 0 1 14.5 6)"  ><path style="stroke: none; stroke-width: 1; stroke-dasharray: none; stroke-linecap: butt; stroke-dashoffset: 0; stroke-linejoin: miter; stroke-miterlimit: 4; fill: rgb(221,60,113); fill-rule: nonzero; opacity: 1;"  transform=" translate(-14.5, -6)" d="M 21 5 C 21.5523 5 22 5.44772 22 6 C 22 6.55228 21.5523 7 21 7 L 8 7 C 7.44772 7 7 6.55228 7 6 C 7 5.44772 7.44772 5 8 5 L 21 5 Z" stroke-linecap="round" /></g></g></g></svg>