<svg xmlns="http://www.w3.org/2000/svg" width="24" height="24"  viewBox="0 0 24 24"><g transform="matrix(1 0 0 1 0 0)"  ><g style=""   ><g transform="matrix(1 0 0 1 12 12)"  ><path style="stroke: none; stroke-width: 1; stroke-dasharray: none; stroke-linecap: butt; stroke-dashoffset: 0; stroke-linejoin: miter; stroke-miterlimit: 4; fill: rgb(86,93,109); fill-rule: nonzero; opacity: 1;"  transform=" translate(-12, -12)" d="M 13.2197 4 C 13.2197 3.73478 13.1143 3.48051 12.9267 3.29297 C 12.7392 3.10552 12.4848 3 12.2197 3 L 11.7802 3 C 11.5151 3 11.2607 3.10552 11.0732 3.29297 C 10.8857 3.48051 10.7802 3.73478 10.7802 4 L 10.7802 4.18066 C 10.7797 4.70675 10.6402 5.22422 10.3769 5.67969 C 10.1137 6.13494 9.73567 6.51341 9.28024 6.77637 L 9.27927 6.77539 L 8.85251 7.02441 L 8.84958 7.02637 C 8.39363 7.28951 7.87602 7.42773 7.34958 7.42773 C 6.8231 7.42767 6.30552 7.28961 5.84958 7.02637 L 5.72946 6.96191 L 5.70017 6.94629 C 5.47071 6.81395 5.19825 6.77825 4.94235 6.84668 C 4.71829 6.9066 4.52288 7.04184 4.38864 7.22852 L 4.33493 7.31152 L 4.1152 7.69141 C 3.9837 7.92042 3.94843 8.19208 4.01657 8.44727 C 4.07646 8.67125 4.21183 8.86674 4.39841 9.00098 L 4.48142 9.05469 L 4.53513 9.08789 L 4.68454 9.1875 C 5.11371 9.44748 5.47106 9.80977 5.7236 10.2441 C 5.98675 10.6968 6.12669 11.2108 6.12985 11.7344 L 6.12985 12.2461 L 6.12399 12.4434 C 6.09551 12.9034 5.96194 13.3518 5.73142 13.7529 C 5.47073 14.2065 5.09499 14.5827 4.64352 14.8467 L 4.6445 14.8477 L 4.49411 14.9375 L 4.48142 14.9453 C 4.25218 15.0781 4.085 15.2968 4.01657 15.5527 C 3.94843 15.8079 3.9837 16.0796 4.1152 16.3086 L 4.33395 16.6885 C 4.46672 16.9177 4.68645 17.0849 4.94235 17.1533 C 5.19825 17.2217 5.47071 17.186 5.70017 17.0537 L 5.72946 17.0381 L 5.84958 16.9736 L 6.02341 16.8809 C 6.43508 16.6779 6.88886 16.5723 7.34958 16.5723 C 7.8102 16.5723 8.26413 16.6781 8.67575 16.8809 L 8.84958 16.9736 L 8.85251 16.9756 L 9.27927 17.2236 C 9.73469 17.4866 10.1137 17.8651 10.3769 18.3203 C 10.6402 18.7758 10.7797 19.2932 10.7802 19.8193 L 10.7802 20 C 10.7802 20.2652 10.8857 20.5195 11.0732 20.707 C 11.2607 20.8945 11.5151 21 11.7802 21 L 12.2197 21 C 12.4848 21 12.7392 20.8945 12.9267 20.707 C 13.1143 20.5195 13.2197 20.2652 13.2197 20 L 13.2197 19.8193 L 13.2265 19.6221 C 13.2571 19.1646 13.3927 18.7188 13.623 18.3203 C 13.8533 17.922 14.1717 17.5829 14.5527 17.3281 L 14.7197 17.2236 L 15.1474 16.9756 L 15.1504 16.9736 L 15.3242 16.8809 C 15.7358 16.6781 16.1897 16.5723 16.6504 16.5723 C 17.1768 16.5723 17.6944 16.7104 18.1504 16.9736 L 18.2998 17.0537 C 18.5292 17.186 18.8017 17.2217 19.0576 17.1533 C 19.3135 17.0849 19.5322 16.9177 19.665 16.6885 L 19.8789 16.3086 L 19.8838 16.3008 L 19.9287 16.2119 C 20.0232 16.0026 20.0432 15.7658 19.9834 15.542 C 19.9149 15.2862 19.7476 15.0683 19.5185 14.9355 L 19.3994 14.8721 C 19.3896 14.8669 19.3797 14.862 19.3701 14.8564 C 18.9123 14.5921 18.5319 14.2113 18.2685 13.7529 C 18.0051 13.2946 17.868 12.7747 17.8701 12.2461 L 17.8701 11.75 C 17.8687 11.2228 18.0058 10.7042 18.2685 10.2471 C 18.5291 9.79359 18.9041 9.41629 19.3554 9.15234 L 19.5058 9.0625 L 19.5185 9.05469 L 19.6015 9.00098 C 19.7881 8.86674 19.9235 8.67125 19.9834 8.44727 C 20.0515 8.19208 20.0162 7.92042 19.8847 7.69141 L 19.665 7.31055 C 19.5322 7.08132 19.3135 6.91512 19.0576 6.84668 C 18.8336 6.7868 18.5971 6.80674 18.3877 6.90137 L 18.2998 6.94629 C 18.2902 6.95181 18.2802 6.95672 18.2705 6.96191 L 18.1494 7.02539 L 18.1504 7.02637 C 17.6944 7.28961 17.1768 7.42767 16.6504 7.42773 C 16.1239 7.42773 15.6063 7.28951 15.1504 7.02637 L 15.1474 7.02441 L 14.7197 6.77539 C 14.2643 6.51244 13.8863 6.13494 13.623 5.67969 C 13.3597 5.22422 13.2202 4.70675 13.2197 4.18066 L 13.2197 4 Z M 15.2197 4.17871 L 15.2285 4.30957 C 15.2457 4.43914 15.2886 4.56482 15.3545 4.67871 C 15.4203 4.79256 15.5076 4.89215 15.6113 4.97168 L 15.7226 5.0459 L 16.1494 5.29395 C 16.3013 5.38161 16.4749 5.42773 16.6504 5.42773 C 16.8258 5.42767 16.9985 5.38165 17.1504 5.29395 L 17.1797 5.27734 L 17.3291 5.19727 C 18.0115 4.81347 18.817 4.71164 19.5742 4.91406 C 20.2459 5.09369 20.8316 5.50011 21.2343 6.05957 L 21.3955 6.30859 L 21.6152 6.68945 L 21.6162 6.69043 L 21.7519 6.9541 C 22.0357 7.58214 22.0955 8.29226 21.916 8.96387 C 21.712 9.72683 21.2143 10.3773 20.5332 10.7764 L 20.5341 10.7773 L 20.3701 10.876 C 20.2175 10.9641 20.0907 11.0914 20.0029 11.2441 C 19.9152 11.3968 19.8694 11.57 19.8701 11.7461 L 19.8701 12.2539 C 19.8694 12.43 19.9152 12.6032 20.0029 12.7559 C 20.0893 12.9063 20.2138 13.0312 20.3633 13.1191 L 20.4902 13.1875 L 20.5215 13.2051 L 20.7705 13.3662 C 21.3297 13.7689 21.7364 14.3539 21.916 15.0254 C 22.1204 15.7898 22.013 16.6035 21.6201 17.29 L 21.6211 17.291 L 21.4013 17.6816 L 21.3955 17.6914 C 20.9971 18.3791 20.3419 18.8806 19.5742 19.0859 C 18.8169 19.2884 18.0115 19.1848 17.3291 18.8008 L 17.3291 18.8027 L 17.1797 18.7227 C 17.1699 18.7174 17.16 18.7116 17.1504 18.7061 C 16.9985 18.6184 16.8258 18.5723 16.6504 18.5723 C 16.4749 18.5723 16.3023 18.6184 16.1504 18.7061 L 16.1494 18.7051 L 15.7226 18.9541 L 15.6113 19.0283 C 15.5076 19.1079 15.4203 19.2074 15.3545 19.3213 C 15.2667 19.4731 15.2199 19.6459 15.2197 19.8213 L 15.2197 20 C 15.2197 20.7955 14.9042 21.5585 14.3418 22.1211 C 13.7792 22.6837 13.0153 23 12.2197 23 L 11.7802 23 C 10.9846 23 10.2208 22.6837 9.65817 22.1211 C 9.09578 21.5585 8.78024 20.7955 8.78024 20 L 8.78024 19.8213 L 8.77145 19.6904 C 8.75425 19.5609 8.71131 19.4352 8.64548 19.3213 C 8.57961 19.2074 8.49235 19.1079 8.38864 19.0283 L 8.27731 18.9541 L 7.84958 18.7051 C 7.69763 18.6174 7.52501 18.5723 7.34958 18.5723 C 7.21808 18.5723 7.08847 18.5985 6.96774 18.6484 L 6.84958 18.7061 C 6.83997 18.7116 6.83007 18.7174 6.82028 18.7227 L 6.67087 18.8027 L 6.66989 18.8008 C 5.98758 19.1844 5.1828 19.2883 4.42575 19.0859 C 3.75401 18.9063 3.16829 18.4999 2.76559 17.9404 L 2.60446 17.6914 L 2.38474 17.3105 L 2.38376 17.3096 C 1.98677 16.6213 1.87884 15.8037 2.08395 15.0361 C 2.28794 14.2733 2.78485 13.6217 3.46579 13.2227 L 3.62985 13.124 L 3.73923 13.0508 C 3.84336 12.9708 3.93117 12.8705 3.99704 12.7559 C 4.08473 12.6032 4.13055 12.43 4.12985 12.2539 L 4.12985 11.7461 L 4.12106 11.6162 C 4.10339 11.4873 4.05993 11.3622 3.99411 11.249 C 3.9283 11.136 3.84144 11.037 3.73825 10.958 L 3.62985 10.8857 L 3.57517 10.8516 L 3.42575 10.752 C 2.76597 10.351 2.28381 9.71127 2.08395 8.96387 C 1.87884 8.19629 1.98678 7.37867 2.38376 6.69043 L 2.38474 6.68848 L 2.60446 6.30859 L 2.76559 6.05957 C 3.16829 5.50011 3.75401 5.09369 4.42575 4.91406 C 5.18265 4.71171 5.98767 4.81479 6.66989 5.19824 L 6.67087 5.19727 L 6.82028 5.27734 L 6.84958 5.29395 L 6.96774 5.35156 C 7.08847 5.40153 7.21807 5.42768 7.34958 5.42773 C 7.48128 5.42773 7.61149 5.40162 7.73239 5.35156 L 7.84958 5.29395 L 8.27731 5.0459 L 8.38864 4.97168 C 8.49235 4.89215 8.57961 4.79256 8.64548 4.67871 C 8.73312 4.52709 8.77994 4.3548 8.78024 4.17969 L 8.78024 4 C 8.78024 3.20452 9.09578 2.44148 9.65817 1.87891 C 10.2208 1.3163 10.9846 1 11.7802 1 L 12.2197 1 C 13.0153 1 13.7792 1.3163 14.3418 1.87891 C 14.9042 2.44148 15.2197 3.20452 15.2197 4 L 15.2197 4.17871 Z" stroke-linecap="round" /></g><g transform="matrix(1 0 0 1 12 12)"  ><path style="stroke: none; stroke-width: 1; stroke-dasharray: none; stroke-linecap: butt; stroke-dashoffset: 0; stroke-linejoin: miter; stroke-miterlimit: 4; fill: rgb(86,93,109); fill-rule: nonzero; opacity: 1;"  transform=" translate(-12, -12)" d="M 14 12 C 14 10.8954 13.1046 10 12 10 C 10.8954 10 10 10.8954 10 12 C 10 13.1046 10.8954 14 12 14 C 13.1046 14 14 13.1046 14 12 Z M 16 12 C 16 14.2091 14.2091 16 12 16 C 9.79086 16 8 14.2091 8 12 C 8 9.79086 9.79086 8 12 8 C 14.2091 8 16 9.79086 16 12 Z" stroke-linecap="round" /></g></g></g></svg>