<svg xmlns="http://www.w3.org/2000/svg" width="28" height="28"  viewBox="0 0 28 28"><g transform="matrix(1 0 0 1 0 0)"  ><g style=""   ><g transform="matrix(1.17 0 0 1.17 13.42 16.92)"  ><path style="stroke: none; stroke-width: 1; stroke-dasharray: none; stroke-linecap: butt; stroke-dashoffset: 0; stroke-linejoin: miter; stroke-miterlimit: 4; fill: rgb(23,26,31); fill-rule: nonzero; opacity: 1;"  transform=" translate(-11.5, -14.5)" d="M 11.3691 13.2246 C 11.7619 12.9043 12.3409 12.9269 12.707 13.293 C 13.0731 13.6591 13.0957 14.2381 12.7754 14.6309 L 12.707 14.707 L 11.707 15.707 C 11.3165 16.0976 10.6835 16.0976 10.293 15.707 C 9.90243 15.3165 9.90243 14.6835 10.293 14.293 L 11.293 13.293 L 11.3691 13.2246 Z" stroke-linecap="round" /></g><g transform="matrix(1.17 0 0 1.17 15.31 22.12)"  ><path style="stroke: none; stroke-width: 1; stroke-dasharray: none; stroke-linecap: butt; stroke-dashoffset: 0; stroke-linejoin: miter; stroke-miterlimit: 4; fill: rgb(23,26,31); fill-rule: nonzero; opacity: 1;"  transform=" translate(-13.13, -18.96)" d="M 12.999 17.5889 C 13.3639 17.1744 13.9966 17.1341 14.4111 17.499 C 14.8256 17.864 14.8659 18.4966 14.501 18.9111 L 13.251 20.3311 C 12.886 20.7456 12.2534 20.7858 11.8389 20.4209 C 11.4244 20.056 11.3841 19.4233 11.749 19.0088 L 12.999 17.5889 Z" stroke-linecap="round" /></g><g transform="matrix(1.17 0 0 1.17 13.67 13.67)"  ><path style="stroke: none; stroke-width: 1; stroke-dasharray: none; stroke-linecap: butt; stroke-dashoffset: 0; stroke-linejoin: miter; stroke-miterlimit: 4; fill: rgb(23,26,31); fill-rule: nonzero; opacity: 1;"  transform=" translate(-11.71, -11.71)" d="M 17.6706 4.6599 C 18.1744 4.60637 18.647 4.94154 18.7536 5.44798 C 18.8671 5.98847 18.5206 6.51901 17.9801 6.63255 L 17.4606 6.7517 C 14.8744 7.39392 12.508 8.729 10.6188 10.6179 C 8.60386 12.6327 7.21864 15.1907 6.63249 17.9792 L 6.60612 18.0788 C 6.45221 18.5617 5.95454 18.8591 5.44792 18.7527 C 4.90765 18.6389 4.56189 18.1085 4.67546 17.5681 L 4.8112 16.9773 C 5.54123 14.0388 7.05831 11.3501 9.20476 9.20384 C 11.4942 6.9146 14.4005 5.34125 17.569 4.67552 L 17.6706 4.6599 Z" stroke-linecap="round" /></g><g transform="matrix(1.17 0 0 1.17 21.44 15.42)"  ><path style="stroke: none; stroke-width: 1; stroke-dasharray: none; stroke-linecap: butt; stroke-dashoffset: 0; stroke-linejoin: miter; stroke-miterlimit: 4; fill: rgb(23,26,31); fill-rule: nonzero; opacity: 1;"  transform=" translate(-18.38, -13.22)" d="M 18.6367 8.31365 C 19.1367 8.23025 19.6284 8.53769 19.7646 9.03728 C 19.9097 9.56989 19.596 10.1194 19.0635 10.2648 L 18.7822 10.3566 C 18.1395 10.6023 17.5983 11.0636 17.2539 11.6662 C 16.8604 12.3548 16.7562 13.1715 16.9648 13.9367 C 17.1735 14.7019 17.6776 15.3527 18.3662 15.7463 C 19.0548 16.1398 19.8715 16.244 20.6367 16.0353 L 20.7373 16.0129 C 21.237 15.9299 21.729 16.2373 21.8652 16.7365 C 22.0105 17.2693 21.6959 17.8197 21.1631 17.965 L 20.9228 18.0236 C 19.7167 18.2892 18.4514 18.0983 17.374 17.4826 C 16.2249 16.8259 15.3834 15.74 15.0351 14.4631 C 14.6869 13.1862 14.86 11.8231 15.5166 10.674 C 16.1733 9.5248 17.2601 8.68339 18.5371 8.33513 L 18.6367 8.31365 Z" stroke-linecap="round" /></g><g transform="matrix(1.17 0 0 1.17 14 14)"  ><path style="stroke: none; stroke-width: 1; stroke-dasharray: none; stroke-linecap: butt; stroke-dashoffset: 0; stroke-linejoin: miter; stroke-miterlimit: 4; fill: rgb(23,26,31); fill-rule: nonzero; opacity: 1;"  transform=" translate(-12, -12)" d="M 16.2414 1.01488 C 16.5022 1.04654 16.7548 1.12896 16.9836 1.25804 C 17.2124 1.3871 17.4135 1.56007 17.5754 1.76683 C 17.7374 1.97367 17.8565 2.21101 17.927 2.4641 L 17.928 2.4641 L 22.928 20.4641 L 22.927 20.4641 C 23.022 20.8052 23.0256 21.1655 22.9358 21.508 C 22.8458 21.851 22.666 22.1645 22.4153 22.4153 C 22.1645 22.666 21.851 22.8458 21.508 22.9358 C 21.1655 23.0256 20.8052 23.022 20.4641 22.927 L 20.4641 22.928 L 2.4641 17.928 L 2.4641 17.927 C 2.21101 17.8565 1.97367 17.7374 1.76683 17.5754 C 1.56007 17.4135 1.3871 17.2124 1.25804 16.9836 C 1.12896 16.7548 1.04654 16.5022 1.01488 16.2414 C 0.983257 15.9807 1.00292 15.7161 1.07347 15.4631 C 2.02796 12.0276 3.85493 8.89749 6.37621 6.37621 C 8.89743 3.85499 12.0277 2.02895 15.4631 1.07445 L 15.4631 1.07347 C 15.7161 1.00292 15.9807 0.983257 16.2414 1.01488 Z M 15.4211 3.17113 C 12.5447 4.07108 9.92566 5.65489 7.79027 7.79027 C 5.51264 10.0679 3.86235 12.8957 3.00023 15.9993 L 3.00023 16.0002 L 2.99926 16.0002 L 20.9993 21.0002 L 21.0012 21.0012 L 21.0002 20.9993 L 16.0002 3.00023 L 15.9993 3.00023 L 15.4211 3.17113 Z" stroke-linecap="round" /></g></g></g></svg>