<svg xmlns="http://www.w3.org/2000/svg" width="28" height="28"  viewBox="0 0 28 28"><g transform="matrix(1 0 0 1 0 0)"  ><g style=""   ><g transform="matrix(1.17 0 0 1.17 14 19.23)"  ><path style="stroke: none; stroke-width: 1; stroke-dasharray: none; stroke-linecap: butt; stroke-dashoffset: 0; stroke-linejoin: miter; stroke-miterlimit: 4; fill: rgb(23,26,31); fill-rule: nonzero; opacity: 1;"  transform=" translate(-12, -16.48)" d="M 16.1123 10.54 C 16.3449 10.0898 16.8856 9.87945 17.3672 10.0693 C 17.8487 10.2593 18.1001 10.7817 17.9629 11.2695 L 17.9307 11.3672 L 13.8506 21.7168 L 13.8399 21.7422 C 13.6861 22.1028 13.4296 22.4108 13.1025 22.6269 C 12.7755 22.843 12.392 22.958 12 22.958 C 11.608 22.958 11.2245 22.843 10.8975 22.6269 C 10.6113 22.4378 10.3792 22.1783 10.2227 21.875 L 10.1602 21.7422 L 10.1494 21.7168 L 6.06934 11.3672 L 6.03712 11.2695 C 5.89995 10.7817 6.15135 10.2593 6.63282 10.0693 C 7.11446 9.87945 7.65509 10.0898 7.8877 10.54 L 7.93067 10.6328 L 12 20.956 L 16.0693 10.6328 L 16.1123 10.54 Z" stroke-linecap="round" /></g><g transform="matrix(1.17 0 0 1.17 14 5.25)"  ><path style="stroke: none; stroke-width: 1; stroke-dasharray: none; stroke-linecap: butt; stroke-dashoffset: 0; stroke-linejoin: miter; stroke-miterlimit: 4; fill: rgb(23,26,31); fill-rule: nonzero; opacity: 1;"  transform=" translate(-12, -4.5)" d="M 16 7 C 16 5.93913 15.5783 4.92202 14.8281 4.17188 C 14.078 3.42173 13.0609 3 12 3 C 10.9391 3 9.92202 3.42173 9.17188 4.17188 C 8.42173 4.92202 8 5.93913 8 7 C 8 7.55228 7.55228 8 7 8 C 6.44772 8 6 7.55228 6 7 C 6 5.4087 6.63259 3.88303 7.75781 2.75781 C 8.88303 1.63259 10.4087 1 12 1 C 13.5913 1 15.117 1.63259 16.2422 2.75781 C 17.3674 3.88303 18 5.4087 18 7 C 18 7.55228 17.5523 8 17 8 C 16.4477 8 16 7.55228 16 7 Z" stroke-linecap="round" /></g><g transform="matrix(1.17 0 0 1.17 14 10.5)"  ><path style="stroke: none; stroke-width: 1; stroke-dasharray: none; stroke-linecap: butt; stroke-dashoffset: 0; stroke-linejoin: miter; stroke-miterlimit: 4; fill: rgb(23,26,31); fill-rule: nonzero; opacity: 1;"  transform=" translate(-12, -9)" d="M 4 9 C 4 8.20435 4.3163 7.44152 4.87891 6.87891 C 5.44152 6.3163 6.20435 6 7 6 C 7.55228 6 8 6.44772 8 7 C 8 7.55228 7.55228 8 7 8 C 6.73478 8 6.48051 8.10543 6.29297 8.29297 C 6.10543 8.48051 6 8.73478 6 9 L 6.00488 9.09863 C 6.02757 9.32763 6.12883 9.54289 6.29297 9.70703 C 6.48051 9.89457 6.73478 10 7 10 L 17 10 C 17.2652 10 17.5195 9.89457 17.707 9.70703 C 17.8946 9.51949 18 9.26522 18 9 C 18 8.73478 17.8946 8.48051 17.707 8.29297 C 17.5429 8.12883 17.3276 8.02757 17.0986 8.00488 L 17 8 L 16.8975 7.99512 C 16.3933 7.94379 16 7.51768 16 7 C 16 6.44772 16.4477 6 17 6 L 17.2969 6.01465 C 17.9835 6.08291 18.6289 6.38671 19.1211 6.87891 C 19.6837 7.44152 20 8.20435 20 9 C 20 9.79565 19.6837 10.5585 19.1211 11.1211 C 18.5585 11.6837 17.7957 12 17 12 L 7 12 C 6.20435 12 5.44152 11.6837 4.87891 11.1211 C 4.38671 10.6289 4.08291 9.98351 4.01465 9.29688 L 4 9 Z" stroke-linecap="round" /></g></g></g></svg>