<svg xmlns="http://www.w3.org/2000/svg" width="22" height="22"  viewBox="0 0 22 22"><g transform="matrix(1 0 0 1 0 0)"  ><g style=""   ><g transform="matrix(0.92 0 0 0.92 6.42 5.96)"  ><path style="stroke: none; stroke-width: 1; stroke-dasharray: none; stroke-linecap: butt; stroke-dashoffset: 0; stroke-linejoin: miter; stroke-miterlimit: 4; fill: rgb(255,255,255); fill-rule: nonzero; opacity: 1;"  transform=" translate(-7, -6.5)" d="M 2 9 L 2 2 C 2 1.44772 2.44772 1 3 1 C 3.55228 1 4 1.44772 4 2 L 4 9 C 4 9.54772 4.45228 10 5 10 L 9 10 C 9.26522 10 9.51949 9.89457 9.70703 9.70703 C 9.89457 9.51949 10 9.26522 10 9 L 10 2 C 10 1.44772 10.4477 1 11 1 C 11.5523 1 12 1.44772 12 2 L 12 9 C 12 9.79565 11.6837 10.5585 11.1211 11.1211 C 10.5585 11.6837 9.79565 12 9 12 L 5 12 C 3.34772 12 2 10.6523 2 9 Z" stroke-linecap="round" /></g><g transform="matrix(0.92 0 0 0.92 6.42 11)"  ><path style="stroke: none; stroke-width: 1; stroke-dasharray: none; stroke-linecap: butt; stroke-dashoffset: 0; stroke-linejoin: miter; stroke-miterlimit: 4; fill: rgb(255,255,255); fill-rule: nonzero; opacity: 1;"  transform=" translate(-7, -12)" d="M 6 22 L 6 2 C 6 1.44772 6.44772 1 7 1 C 7.55228 1 8 1.44772 8 2 L 8 22 C 8 22.5523 7.55228 23 7 23 C 6.44772 23 6 22.5523 6 22 Z" stroke-linecap="round" /></g><g transform="matrix(0.92 0 0 0.92 16.96 11)"  ><path style="stroke: none; stroke-width: 1; stroke-dasharray: none; stroke-linecap: butt; stroke-dashoffset: 0; stroke-linejoin: miter; stroke-miterlimit: 4; fill: rgb(255,255,255); fill-rule: nonzero; opacity: 1;"  transform=" translate(-18.5, -12)" d="M 20 22 L 20 16 L 18 16 C 16.3477 16 15 14.6523 15 13 L 15 7 C 15 5.4087 15.6326 3.88303 16.7578 2.75781 C 17.883 1.63259 19.4087 1 21 1 C 21.2652 1 21.5195 1.10543 21.707 1.29297 C 21.8946 1.48051 22 1.73478 22 2 L 22 22 C 22 22.5523 21.5523 23 21 23 C 20.4477 23 20 22.5523 20 22 Z M 17 13 C 17 13.5477 17.4523 14 18 14 L 20 14 L 20 3.12793 C 19.3141 3.3051 18.6814 3.66239 18.1719 4.17188 C 17.4217 4.92202 17 5.93913 17 7 L 17 13 Z" stroke-linecap="round" /></g></g></g></svg>