<svg xmlns="http://www.w3.org/2000/svg" width="24" height="24"  viewBox="0 0 24 24"><g transform="matrix(1 0 0 1 0 0)"  ><g style=""   ><g transform="matrix(1 0 0 1 12 12)"  ><path style="stroke: none; stroke-width: 1; stroke-dasharray: none; stroke-linecap: butt; stroke-dashoffset: 0; stroke-linejoin: miter; stroke-miterlimit: 4; fill: rgb(86,93,109); fill-rule: nonzero; opacity: 1;"  transform=" translate(-12, -12)" d="M 20 6.33203 L 17.501 3 L 6.49902 3 L 4 6.33203 L 4 20 C 4 20.2652 4.10543 20.5195 4.29297 20.707 C 4.48051 20.8946 4.73478 21 5 21 L 19 21 C 19.2652 21 19.5195 20.8946 19.707 20.707 C 19.8946 20.5195 20 20.2652 20 20 L 20 6.33203 Z M 22 20 C 22 20.7957 21.6837 21.5585 21.1211 22.1211 C 20.5585 22.6837 19.7957 23 19 23 L 5 23 C 4.20435 23 3.44152 22.6837 2.87891 22.1211 C 2.3163 21.5585 2 20.7956 2 20 L 2 6 C 2 5.78369 2.07045 5.57346 2.2002 5.40039 L 5.2002 1.40039 L 5.27539 1.31055 C 5.46295 1.11339 5.72451 1 6 1 L 18 1 C 18.3148 1 18.611 1.14858 18.7998 1.40039 L 21.7998 5.40039 C 21.9296 5.57346 22 5.78369 22 6 L 22 20 Z" stroke-linecap="round" /></g><g transform="matrix(1 0 0 1 12 6)"  ><path style="stroke: none; stroke-width: 1; stroke-dasharray: none; stroke-linecap: butt; stroke-dashoffset: 0; stroke-linejoin: miter; stroke-miterlimit: 4; fill: rgb(86,93,109); fill-rule: nonzero; opacity: 1;"  transform=" translate(-12, -6)" d="M 21 5 C 21.5523 5 22 5.44772 22 6 C 22 6.55228 21.5523 7 21 7 L 3 7 C 2.44772 7 2 6.55228 2 6 C 2 5.44772 2.44772 5 3 5 L 21 5 Z" stroke-linecap="round" /></g><g transform="matrix(1 0 0 1 12 12)"  ><path style="stroke: none; stroke-width: 1; stroke-dasharray: none; stroke-linecap: butt; stroke-dashoffset: 0; stroke-linejoin: miter; stroke-miterlimit: 4; fill: rgb(86,93,109); fill-rule: nonzero; opacity: 1;"  transform=" translate(-12, -12)" d="M 7 10 C 7 9.44772 7.44772 9 8 9 C 8.55228 9 9 9.44772 9 10 C 9 10.7956 9.3163 11.5585 9.87891 12.1211 C 10.4415 12.6837 11.2044 13 12 13 L 12.2969 12.9854 C 12.9835 12.9171 13.6289 12.6133 14.1211 12.1211 C 14.6837 11.5585 15 10.7956 15 10 C 15 9.44772 15.4477 9 16 9 C 16.5523 9 17 9.44772 17 10 C 17 11.3261 16.4728 12.5975 15.5352 13.5352 C 14.6561 14.4142 13.4838 14.9328 12.248 14.9941 L 12 15 C 10.6739 15 9.40253 14.4728 8.46484 13.5352 C 7.52716 12.5975 7 11.3261 7 10 Z" stroke-linecap="round" /></g></g></g></svg>